<svg xmlns="http://www.w3.org/2000/svg" viewBox="0 0 700 500"><g id="freepik--background-simple--inject-233"><path d="M646.94,199.19C596.73,97.7,439.41,40,347.38,147.23q-5.43,6.32-10.26,13.2c-23.46,33.35-58.69,91.11-101.69,77-29.43-9.67-49.62-36.34-78.74-46.72C118.32,177,81.84,205,58.34,240.8,31,282.41,18,331.23,33.51,376.36c28.94,84.08,141.62,103,218.73,95.29,56.48-5.65,111-36.23,167.55-38.16,40.7-1.39,79.63,9.87,116.3,23.86,17,6.49,34,13.64,52.36,15.42,65.78,6.4,78.34-59.35,79.91-114.66C669.92,303.17,670.37,246.54,646.94,199.19Z" style="fill:#92E3A9"></path><path d="M646.94,199.19C596.73,97.7,439.41,40,347.38,147.23q-5.43,6.32-10.26,13.2c-23.46,33.35-58.69,91.11-101.69,77-29.43-9.67-49.62-36.34-78.74-46.72C118.32,177,81.84,205,58.34,240.8,31,282.41,18,331.23,33.51,376.36c28.94,84.08,141.62,103,218.73,95.29,56.48-5.65,111-36.23,167.55-38.16,40.7-1.39,79.63,9.87,116.3,23.86,17,6.49,34,13.64,52.36,15.42,65.78,6.4,78.34-59.35,79.91-114.66C669.92,303.17,670.37,246.54,646.94,199.19Z" style="fill:#fff;opacity:0.8"></path></g><g id="freepik--Clouds--inject-233"><path d="M239.66,76.68S248,50.41,217,37.27s-81.21,6-78.82,19.11,26.27,26.27,9.55,27.47S120.23,60,85.6,71.91s6,27.46-2.39,27.46-31-6-51.35,0,0,16.72,76.43,22.69,58.52-9.55,87.18-11.94,25.08,10.75,86,0S320.86,62.35,239.66,76.68Z" style="fill:#f2f2f2"></path><path d="M326.09,127s2.62-8.24-7.13-12.37-25.48,1.88-24.73,6,8.24,8.25,3,8.62-8.62-7.49-19.49-3.75,1.88,8.63-.75,8.63-9.74-1.88-16.11,0,0,5.24,24,7.12,18.37-3,27.37-3.75,7.87,3.37,27,0S351.57,122.55,326.09,127Z" style="fill:#f2f2f2"></path><path d="M416.82,84.28s1.35-4.26-3.68-6.39-13.15,1-12.76,3.1,4.25,4.26,1.54,4.45-4.45-3.87-10.06-1.94,1,4.45-.38,4.45-5-1-8.32,0,0,2.71,12.38,3.68,9.48-1.55,14.12-1.94,4.06,1.75,13.93,0S430,82,416.82,84.28Z" style="fill:#f2f2f2"></path></g><g id="freepik--Trees--inject-233"><path d="M563.8,197.78s35.3-17.65,64,9.93l1.15,1.07a100.16,100.16,0,0,0,38.56-78.84C667.49,74.19,621.56,29,564.9,29S462.31,74.19,462.31,129.94a100.14,100.14,0,0,0,38.78,79C507.51,204.21,537.38,184.08,563.8,197.78Z" style="fill:#92E3A9"></path><path d="M563.8,197.78s35.3-17.65,64,9.93l1.15,1.07a100.16,100.16,0,0,0,38.56-78.84C667.49,74.19,621.56,29,564.9,29S462.31,74.19,462.31,129.94a100.14,100.14,0,0,0,38.78,79C507.51,204.21,537.38,184.08,563.8,197.78Z" style="fill:#fff;opacity:0.2"></path><polygon points="528.36 176.22 562.06 187.53 560.43 435.05 568.81 435.05 566.98 171.89 593.06 157.4 630.44 161.62 596.97 155.23 638.06 132.4 612.87 144.72 616.65 132.77 633.61 119.38 617.74 129.34 622.5 114.3 611.38 141.09 602.05 129.82 607.25 112.39 600.44 127.87 589.47 114.61 610.01 144.37 609.11 146.56 566.86 167.22 565.84 127.32 578.45 112.75 615.51 103.18 600.46 105.78 607.57 97.78 597.62 106.27 581.68 109.02 599.95 87.94 585.46 101.89 586.61 84.12 583.18 104.09 565.67 120.96 564.9 90.78 564.37 108.89 558.07 98.18 560.46 85.21 573.9 72.37 561.15 81.48 565.01 60.62 556.02 94.71 547.54 80.31 553.33 91.89 538.65 87.3 554.96 95.16 564.23 113.69 563.37 143.06 543.89 128.04 539.03 116 541.19 98.1 537.38 111.76 537.66 112.59 529.12 91.43 541.13 125.91 522.77 111.76 545.91 132.66 511.01 130.5 530.13 133.22 506.57 139.71 534.93 133.91 549.63 136.01 563.21 148.28 562.23 181.75 539.35 176.65 517.68 149.87 529.19 166.08 502.44 159.4 532.27 170.44 536.18 175.95 510.38 170.2 523.93 174.74 497.04 180.99 528.36 176.22" style="fill:#919191"></polygon><path d="M142.68,224.52s31.32-15.66,56.77,8.81c.35.33.68.62,1,.95a88.84,88.84,0,0,0,34.22-69.95c0-49.47-40.76-89.56-91-89.56s-91,40.09-91,89.56A88.85,88.85,0,0,0,87,234.43C92.74,230.23,119.24,212.37,142.68,224.52Z" style="fill:#92E3A9"></path><path d="M142.68,224.52s31.32-15.66,56.77,8.81c.35.33.68.62,1,.95a88.84,88.84,0,0,0,34.22-69.95c0-49.47-40.76-89.56-91-89.56s-91,40.09-91,89.56A88.85,88.85,0,0,0,87,234.43C92.74,230.23,119.24,212.37,142.68,224.52Z" style="fill:#fff;opacity:0.4"></path><polygon points="111.23 205.4 141.14 215.42 139.69 435.05 147.13 435.05 145.5 201.55 168.65 188.69 201.81 192.44 172.11 186.77 208.57 166.51 186.23 177.44 189.58 166.84 204.63 154.96 190.54 163.8 194.76 150.45 184.9 174.22 176.63 164.23 181.24 148.76 175.19 162.5 165.46 150.73 183.69 177.13 182.88 179.07 145.4 197.4 144.49 162 155.68 149.08 188.56 140.59 175.21 142.89 181.52 135.79 172.69 143.33 158.55 145.77 174.76 127.06 161.9 139.44 162.92 123.68 159.88 141.39 144.35 156.36 143.66 129.58 143.19 145.65 137.59 136.15 139.72 124.64 151.65 113.25 140.34 121.33 143.76 102.82 135.78 133.07 128.26 120.3 133.39 130.57 120.37 126.5 134.84 133.47 143.06 149.91 142.3 175.97 125.02 162.64 120.7 151.96 122.62 136.08 119.24 148.19 119.49 148.94 111.91 130.16 122.57 160.75 106.28 148.19 126.81 166.74 95.85 164.82 112.81 167.24 91.9 172.99 117.07 167.85 130.11 169.72 142.16 180.6 141.29 210.3 120.99 205.78 101.77 182.01 111.97 196.4 88.24 190.47 114.71 200.26 118.18 205.15 95.28 200.05 107.31 204.08 83.45 209.63 111.23 205.4" style="fill:#919191"></polygon><path d="M88.31,287.63s21.93-11,39.75,6.17l.72.66a62.21,62.21,0,0,0,24-49c0-34.64-28.54-62.72-63.74-62.72s-63.75,28.08-63.75,62.72a62.21,62.21,0,0,0,24.1,49.09C53.34,291.63,71.9,279.12,88.31,287.63Z" style="fill:#92E3A9"></path><path d="M88.31,287.63s21.93-11,39.75,6.17l.72.66a62.21,62.21,0,0,0,24-49c0-34.64-28.54-62.72-63.74-62.72s-63.75,28.08-63.75,62.72a62.21,62.21,0,0,0,24.1,49.09C53.34,291.63,71.9,279.12,88.31,287.63Z" style="fill:#fff;opacity:0.2"></path><polygon points="66.29 274.24 87.23 281.26 86.22 435.05 91.43 435.05 90.29 271.54 106.49 262.54 129.72 265.16 108.92 261.19 134.45 247.01 118.8 254.66 121.15 247.24 131.69 238.92 121.83 245.11 124.78 235.76 117.87 252.41 112.08 245.41 115.31 234.58 111.08 244.2 104.26 235.96 117.03 254.44 116.46 255.81 90.21 268.64 89.58 243.85 97.42 234.8 120.44 228.85 111.09 230.47 115.51 225.5 109.32 230.78 99.42 232.48 110.77 219.38 101.77 228.06 102.48 217.01 100.36 229.42 89.48 239.9 89 221.15 88.67 232.4 84.75 225.75 86.24 217.69 94.59 209.71 86.67 215.37 89.06 202.41 83.48 223.59 78.21 214.65 81.81 221.84 72.69 218.99 82.82 223.87 88.58 235.38 88.04 253.63 75.94 244.3 72.92 236.82 74.26 225.7 71.9 234.18 72.07 234.7 66.77 221.55 74.22 242.98 62.82 234.18 77.2 247.17 55.52 245.82 67.39 247.52 52.75 251.55 70.38 247.95 79.51 249.25 87.95 256.87 87.34 277.67 73.12 274.5 59.66 257.86 66.81 267.94 50.19 263.78 68.72 270.64 71.15 274.06 55.12 270.49 63.54 273.32 46.83 277.2 66.29 274.24" style="fill:#919191"></polygon></g><g id="freepik--Plants--inject-233"><path d="M610.83,403.41a16.52,16.52,0,0,0,1.72-.31c1.22-.26,2.38-.5,3.35-.79a5.63,5.63,0,0,0,2-.85c.51.41,1,.8,1.53,1.23L620.9,404a10.88,10.88,0,0,0-1.6-.3,9.17,9.17,0,0,0-1.92-.07,14.52,14.52,0,0,0-3.94.8c-.67.23-1.3.47-1.84.71s-1,.5-1.38.69c-.16.09-.2.36-.06.35.65-.06,1.69-.05,2.91-.06.6,0,1.22,0,1.84,0h1.78c1.23,0,2.48-.14,3.46-.24a5.41,5.41,0,0,0,2.12-.53,38.34,38.34,0,0,1,2.6,3,12.31,12.31,0,0,0-3.43-.87,16.3,16.3,0,0,0-4.06.18,25.55,25.55,0,0,0-3.44.82c-.18.06-.26.32-.11.34l2.94.47c1.17.25,2.56.45,3.64.61a30.27,30.27,0,0,0,3.49.24,5.21,5.21,0,0,0,2.17-.25l1.17,1.58,1.09,1.64a12.61,12.61,0,0,0-3.34-1.24,16.61,16.61,0,0,0-4.08-.38,34.1,34.1,0,0,0-3.56.29c-.19,0-.3.28-.16.33.64.21,1.7.56,2.92.92a31.76,31.76,0,0,0,3.62,1.13,27.61,27.61,0,0,0,3.44.65,5.16,5.16,0,0,0,2.2-.05l1,1.7.92,1.75a12.53,12.53,0,0,0-3.2-1.58,17.13,17.13,0,0,0-4-.79,29.51,29.51,0,0,0-3.61-.15c-.19,0-.34.25-.19.31.66.28,1.67.8,2.86,1.31a36.47,36.47,0,0,0,3.47,1.46,27.92,27.92,0,0,0,3.37,1,5.15,5.15,0,0,0,2.18.19c.57,1.19,1.05,2.41,1.53,3.63a13.08,13.08,0,0,0-3-1.92,17.42,17.42,0,0,0-3.92-1.21,31,31,0,0,0-3.57-.5c-.19,0-.36.21-.22.29.62.34,1.57.94,2.69,1.57s2.29,1.33,3.27,1.82c2.32,1.07,4.49,1.94,5.39,1.79l.57,1.89.49,1.9a12.49,12.49,0,0,0-2.74-2.27,17.71,17.71,0,0,0-3.73-1.64,32.79,32.79,0,0,0-3.48-.87c-.19,0-.38.17-.26.26.53.41,1.5,1.08,2.47,1.83s2.08,1.56,3,2.15c2.13,1.33,4.2,2.46,5.09,2.45a28,28,0,0,1,.45,3.75H637a29.57,29.57,0,0,0-.47-3.88c.83-.24,2.41-2.14,3.47-4.88a18.24,18.24,0,0,0,1-4.31,31.71,31.71,0,0,0,.24-3.93c0-.21-.29-.25-.38-.05l-1.67,3.66c-.69,1.44-1.36,2.9-1.82,4a32,32,0,0,0-1.2,3.6c-.15-.66-.33-1.32-.5-2L635,425.2a4.18,4.18,0,0,0,1.42-1.69,14.21,14.21,0,0,0,1.39-3.56,19.17,19.17,0,0,0,.5-4.37c0-1.52-.09-3-.2-3.89a.2.2,0,0,0-.39,0c-.26.87-.77,2.32-1.26,3.8s-1.06,3-1.34,4.2a28.32,28.32,0,0,0-.75,3.72c-.49-1.27-1-2.54-1.57-3.77a4.35,4.35,0,0,0,1.24-1.85,17.15,17.15,0,0,0,1-3.68,21.79,21.79,0,0,0,0-4.36c-.17-1.5-.39-3-.59-3.83,0-.19-.34-.16-.38,0-.18.88-.53,2.38-.87,3.9s-.72,3.11-.89,4.31a28.56,28.56,0,0,0-.33,3.77l-1-1.81-1-1.76a4.14,4.14,0,0,0,1-2,17.83,17.83,0,0,0,.6-3.75,23.22,23.22,0,0,0-.41-4.33c-.34-1.5-.77-2.94-1-3.82-.06-.2-.37-.14-.38.07-.1.93-.25,2.44-.41,4S629,407.79,629,409a31.87,31.87,0,0,0,.06,3.78l-1.12-1.7-1.21-1.64a4.52,4.52,0,0,0,.83-2.07,16.14,16.14,0,0,0,.17-3.81,18.61,18.61,0,0,0-1-4.34,38.25,38.25,0,0,0-1.61-3.71.21.21,0,0,0-.38.13c.08.94.13,2.51.2,4.08s0,3.26.15,4.45a26.5,26.5,0,0,0,.48,3.77c-.88-1-1.73-2.1-2.7-3.06a4.28,4.28,0,0,0,.56-2.17,14.79,14.79,0,0,0-.36-3.82,11.09,11.09,0,0,0-.66-2,19.37,19.37,0,0,0-1-2.17,25.52,25.52,0,0,0-2.26-3.45.2.2,0,0,0-.35.18c.11.46.26,1.07.44,1.76s.3,1.49.46,2.27c.33,1.56.56,3.22.84,4.41.18.73.35,1.42.51,2a16,16,0,0,0,.5,1.62L620,402.14c-.5-.46-1.06-.85-1.59-1.28a4.2,4.2,0,0,0,.23-2.23,14.64,14.64,0,0,0-1-3.74,15.71,15.71,0,0,0-1-1.92,21.19,21.19,0,0,0-1.42-2,24.87,24.87,0,0,0-3-3,.2.2,0,0,0-.32.24c.22.45.5,1,.8,1.67l.91,2.16,1.62,4.22c.29.71.57,1.36.85,1.93s.5,1.12.74,1.55l-1.24-.84-1.29-.77a1.94,1.94,0,0,0-.37-.71,6.11,6.11,0,0,0-.89-.82,10.55,10.55,0,0,0-3-1.59,12.86,12.86,0,0,0-3.94-.63,14.4,14.4,0,0,0-3.42.33c-.18.05-.16.35,0,.4a29.4,29.4,0,0,1,3,1.13c1.18.49,2.38,1.09,3.36,1.43a12.37,12.37,0,0,0,4.71,1.06l1.28.76c.42.26.82.56,1.23.83a11.61,11.61,0,0,0-1.61-.06,15.13,15.13,0,0,0-1.9.26,9.87,9.87,0,0,0-1.82.57,14.94,14.94,0,0,0-1.89.92c-.6.35-1.16.71-1.64,1.05s-.89.69-1.18.94c-.14.12-.14.39,0,.36.59-.18,1.59-.4,2.74-.63Z" style="fill:#92E3A9"></path><path d="M638.87,410.15c1.88,3.93,3.9,6.71,4.79,6.92.16,2.5.34,5,.56,7.51a49.94,49.94,0,0,0-2.48-5.52,110.77,110.77,0,0,0-6.48-10.14c-.16-.23-.41,0-.32.34a84.74,84.74,0,0,0,4.59,12.28c2,3.86,4.13,6.57,5,6.75q.33,3.3.73,6.59h.77c-.27-2.21-.52-4.43-.73-6.66.84-.25,2.4-3.33,3.85-7.41,1.23-3.51,2.58-9.59,3.19-12.23.07-.31-.2-.54-.34-.3a64.1,64.1,0,0,0-5.39,10.44,38.43,38.43,0,0,0-1.64,6c-.22-2.55-.4-5.1-.56-7.65.85-.23,2.52-3.26,4.09-7.28,1.35-3.48,2.88-9.5,3.59-12.12.08-.3-.18-.54-.33-.31a63,63,0,0,0-5.72,10.25,37.51,37.51,0,0,0-1.84,5.9c-.13-2.55-.24-5.11-.32-7.66.86-.2,2.62-3.18,4.34-7.14.72-1.71,1.54-4.06,2.24-6.3s1.48-4.09,1.89-5.29c.09-.27-.16-.51-.32-.31-.72.88-1.9,2.38-3.11,4.12q-.45.66-.9,1.35c-.28.47-.55.95-.82,1.43-.52.95-1,1.89-1.38,2.74a37.54,37.54,0,0,0-2,5.84c-.05-2.56-.08-5.12-.06-7.68.43-.08,1.11-.85,1.91-2.09a45.7,45.7,0,0,0,2.78-4.71c.2-.39.41-.83.62-1.29s.48-.94.73-1.43c.5-1,1-2,1.45-3.06s1-2,1.4-2.86l1.08-2.2c.13-.26-.09-.53-.28-.35-.83.8-2.19,2.17-3.61,3.76a39,39,0,0,0-3.62,5.06,12.41,12.41,0,0,0-.77,1.49c-.23.49-.44,1-.64,1.46-.4.95-.73,1.86-1,2.67.14-2.55.17-5.1.52-7.63.9-.08,3-2.78,5.41-6.22,2-3,5-8.11,6.44-10.27.16-.25,0-.55-.23-.38-.91.72-2.42,1.94-4,3.38a43.06,43.06,0,0,0-4.17,4.65,39.24,39.24,0,0,0-3,5.31l.66-3.77.32-1.89.43-1.86c.44,0,1.28-.6,2.33-1.61s2.36-2.4,3.72-4c1.14-1.39,2.65-3.3,4-5.11l3.47-4.53c.19-.23,0-.54-.19-.4-1,.62-2.58,1.72-4.29,3a37.54,37.54,0,0,0-4.64,4.21,36.5,36.5,0,0,0-3.59,5l1-3.69.53-1.83.62-1.82c.87.11,3.52-2.08,6.57-5,2.62-2.55,6.51-7.07,8.36-8.91.2-.21.08-.54-.16-.42-1,.54-2.79,1.45-4.56,2.6-.88.58-1.83,1.19-2.67,1.83s-1.65,1.31-2.33,1.94a26.33,26.33,0,0,0-2.28,2.37c-.68.78-1.28,1.54-1.78,2.23.69-1.74,1.3-3.51,2.05-5.22a9.57,9.57,0,0,0,2-2.8c.89-1.42,1.82-3.31,2.88-5.34.45-.91.93-2,1.45-3.08.24-.56.5-1.13.75-1.71l.78-1.71c1-2.26,2-4.38,2.67-5.65.15-.29-.1-.47-.33-.22a56.16,56.16,0,0,0-4,4.93L657.46,339c-.35.54-.7,1.07-1,1.6a33,33,0,0,0-1.73,3,41.4,41.4,0,0,0-2.24,5.35,13.58,13.58,0,0,0-.73,3.51l-.56,1.31-.52,1.34-1,2.67c.08-.83.14-1.78.16-2.81s0-2.13,0-3.27c0-1,0-2-.12-3.17s-.15-2.29-.23-3.41c-.19-2.28-.31-4.39-.41-5.69,0-.29-.37-.18-.45.15-.17.72-.39,1.68-.64,2.76s-.44,2.32-.64,3.56-.34,2.54-.46,3.75a28.45,28.45,0,0,0-.15,3.33c.07,4.44.93,7.81,1.68,8.33l-.6,1.79c-.19.6-.35,1.21-.53,1.81l-1,3.63a51.47,51.47,0,0,0-.39-6.08c-.14-1.89-.58-4.28-1-6.52s-.73-4.35-.94-5.63c0-.29-.39-.14-.44.19-.19,1.49-.53,3.89-.68,6.42a42.65,42.65,0,0,0,.08,7.13,26.7,26.7,0,0,0,1.12,5.56,5.36,5.36,0,0,0,1.36,2.58L645,374l-.32,1.86-.65,3.72a50.38,50.38,0,0,0-1-6c-.33-1.87-1-4.2-1.61-6.41s-1.11-4.26-1.45-5.52c-.08-.29-.4-.11-.42.23-.17,3-.21,9.76.74,13.59.9,4.37,2.52,7.49,3.34,7.84-.35,2.5-.39,5-.52,7.53-.18-.81-.42-1.73-.72-2.72-.15-.49-.31-1-.49-1.53s-.36-1.07-.51-1.61c-.54-1.82-1.48-4.08-2.32-6.22s-1.55-4.13-2-5.36c-.1-.28-.41-.07-.38.28,0,.75.12,1.74.2,2.86s.18,2.35.42,3.63.43,2.56.68,3.76c.13.6.25,1.17.4,1.72s.33,1.06.5,1.52a33.05,33.05,0,0,0,2.29,5.21c.78,1.27,1.45,2.06,1.89,2.19,0,2.51,0,5,.06,7.53a53.68,53.68,0,0,0-2.11-5.67c-.37-.87-.84-1.83-1.36-2.81l-.8-1.48c-.26-.52-.52-1-.77-1.54-1.08-2-2.07-4-2.68-5.12-.14-.27-.41,0-.35.32.28,1.5.76,3.95,1.36,6.41a54,54,0,0,0,2.24,6.55c1.74,4,3.67,6.84,4.56,7.07.07,2.51.18,5,.3,7.53a50.23,50.23,0,0,0-2.28-5.6A114.26,114.26,0,0,0,635,397.39c-.16-.24-.41,0-.33.34A82.62,82.62,0,0,0,638.87,410.15Z" style="fill:#92E3A9"></path><path d="M651.37,430.05a46.44,46.44,0,0,0-.87,4.76s0,.05,0,.07h.76a43.81,43.81,0,0,1,.85-4.66c.85.08,3.09-1.29,5.44-3.1,2-1.59,4.79-4.45,6.05-5.66.14-.14-.05-.37-.25-.3a34.65,34.65,0,0,0-7.67,3.92,17.45,17.45,0,0,0-3,2.94c.43-1.57.88-3.13,1.4-4.68.85.16,3.2-1,5.69-2.69a75.68,75.68,0,0,0,6.44-5.35c.15-.13,0-.38-.23-.31-.86.28-2.29.77-3.8,1.38a27.71,27.71,0,0,0-4.12,2.1,17.88,17.88,0,0,0-3.24,2.72c.54-1.54,1.13-3.06,1.73-4.57.86.22,3.25-.81,5.87-2.34a68.76,68.76,0,0,0,6.74-5.08c.16-.13,0-.38-.21-.32-.88.25-2.34.68-3.87,1.23a27.74,27.74,0,0,0-4.25,1.88,20.38,20.38,0,0,0-3.41,2.53c.66-1.49,1.3-3,2-4.46.82.26,3.29-.63,6-2.06a37.92,37.92,0,0,0,3.81-2.47c1.29-.9,2.46-1.78,3.16-2.31.16-.12,0-.38-.19-.33a38.46,38.46,0,0,0-8.25,2.75A19.21,19.21,0,0,0,660.4,408c.73-1.46,1.45-2.93,2.22-4.37.81.3,3.33-.48,6.06-1.79a81.29,81.29,0,0,0,7.18-4.4c.16-.11,0-.38-.18-.35a36.75,36.75,0,0,0-8.36,2.33,18.51,18.51,0,0,0-3.63,2.21c.79-1.44,1.58-2.86,2.42-4.27.78.34,3.34-.32,6.13-1.48,2.4-1,5.86-3.1,7.35-3.94.17-.09,0-.36-.16-.34-.9.08-2.39.26-4,.56a23.91,23.91,0,0,0-4.46,1.24,17.91,17.91,0,0,0-3.73,2c.84-1.4,1.73-2.77,2.62-4.14.79.4,3.35-.15,6.2-1.11,1.22-.41,2.71-1.1,4.1-1.71s2.63-1.17,3.38-1.5c.17-.07.07-.35-.13-.36a31.2,31.2,0,0,0-3.94.15,22,22,0,0,0-4.5.88,18.29,18.29,0,0,0-3.84,1.77c.69-1,1.37-2,2.08-2.91.89-.14,2.67-1.86,4.54-4.08a20.5,20.5,0,0,0,1.31-1.71l1.4-1.92a37.47,37.47,0,0,1,2.49-3.13.21.21,0,0,0-.23-.33,20.65,20.65,0,0,0-3.6,2.1c-.68.48-1.33,1-1.95,1.55a21.39,21.39,0,0,0-1.58,1.61c-1.82,2.16-2.86,4.33-2.9,5.32-.74,1-1.42,2-2.13,3a29.54,29.54,0,0,0,.48-4.18c.06-1.36,0-3.14-.06-4.85s-.11-3.36-.11-4.38c0-.23-.31-.26-.41,0a39.44,39.44,0,0,0-1.39,4.25,24.22,24.22,0,0,0-.85,4.84c-.16,3.14.37,5.72,1,6.34-.87,1.35-1.75,2.69-2.58,4.07a28.31,28.31,0,0,0,.22-4.19c0-1.36-.21-3.1-.43-4.8s-.42-3.28-.54-4.26a.21.21,0,0,0-.41,0,38,38,0,0,0-1.44,9.06c.06,3.13.7,5.66,1.38,6.25-.82,1.38-1.61,2.79-2.38,4.19a27.41,27.41,0,0,0,0-4.18c-.2-2.69-1.16-7-1.52-8.93a.2.2,0,0,0-.39,0,39.06,39.06,0,0,0-.91,9.05c.22,3.11,1,5.61,1.69,6.17-.77,1.41-1.47,2.86-2.19,4.29a26.46,26.46,0,0,0-.18-4.18,84,84,0,0,0-2-8.82.2.2,0,0,0-.4,0c-.14,1-.34,2.56-.46,4.24a27.39,27.39,0,0,0,0,4.81c.35,3.08,1.22,5.56,2,6.09-.71,1.44-1.34,2.92-2,4.39a25.88,25.88,0,0,0-.38-4.18,41.82,41.82,0,0,0-1.12-4.66c-.45-1.61-.93-3.13-1.22-4.06a.21.21,0,0,0-.4,0,41.29,41.29,0,0,0,0,9.07c.48,3.08,1.51,5.52,2.25,6-.6,1.49-1.19,3-1.72,4.51a29.38,29.38,0,0,0-.63-4.16,45.4,45.4,0,0,0-1.37-4.61c-.53-1.6-1.07-3.11-1.4-4a.2.2,0,0,0-.39.06,38.88,38.88,0,0,0,.4,9.14c.67,3.07,1.83,5.42,2.62,5.86-.52,1.52-1,3.07-1.39,4.62a32,32,0,0,0-.93-4.11c-.76-2.59-2.56-6.68-3.29-8.5a.2.2,0,0,0-.39.09,36.66,36.66,0,0,0,1,9.18C649.19,427.43,650.54,429.69,651.37,430.05Z" style="fill:#92E3A9"></path><path d="M429.23,411.52c.44-.06.88-.14,1.28-.23.9-.2,1.76-.37,2.48-.59a4,4,0,0,0,1.5-.63c.38.31.77.59,1.13.92l1.08,1a8.31,8.31,0,0,0-1.18-.22,6.65,6.65,0,0,0-1.43-.05,10.54,10.54,0,0,0-2.93.6,13.89,13.89,0,0,0-1.36.52c-.42.19-.76.37-1,.51s-.16.27,0,.26c.48,0,1.26,0,2.16,0,.45,0,.9,0,1.37,0h1.32c.91,0,1.84-.1,2.57-.18a3.87,3.87,0,0,0,1.57-.4c.7.69,1.31,1.45,1.93,2.19a9.46,9.46,0,0,0-2.55-.64,12.54,12.54,0,0,0-3,.13,20.18,20.18,0,0,0-2.55.61c-.13.05-.2.24-.09.25l2.19.35c.87.19,1.9.34,2.7.46a22.58,22.58,0,0,0,2.59.17,3.72,3.72,0,0,0,1.61-.18l.87,1.17.81,1.22a9.23,9.23,0,0,0-2.48-.92,12.3,12.3,0,0,0-3-.28,23.07,23.07,0,0,0-2.64.22c-.14,0-.22.2-.12.24.47.16,1.26.41,2.17.68a22.17,22.17,0,0,0,2.68.84,19.14,19.14,0,0,0,2.56.48,3.94,3.94,0,0,0,1.63,0l.74,1.26.68,1.3a9.15,9.15,0,0,0-2.37-1.18,13.41,13.41,0,0,0-3-.59,22.82,22.82,0,0,0-2.68-.1c-.14,0-.25.18-.14.23.49.21,1.24.59,2.12,1a25.92,25.92,0,0,0,2.58,1.08,19.9,19.9,0,0,0,2.5.74,3.87,3.87,0,0,0,1.62.15c.42.88.77,1.78,1.13,2.69a10,10,0,0,0-2.22-1.43,13.31,13.31,0,0,0-2.91-.89,21.7,21.7,0,0,0-2.66-.37c-.14,0-.26.15-.16.21.47.25,1.17.7,2,1.16s1.7,1,2.43,1.35c1.72.8,3.33,1.44,4,1.34l.42,1.4.36,1.41a8.79,8.79,0,0,0-2-1.68,12.74,12.74,0,0,0-2.77-1.22,24.12,24.12,0,0,0-2.58-.65c-.14,0-.28.12-.19.19.39.31,1.11.8,1.83,1.36s1.54,1.16,2.25,1.6c1.59,1,3.12,1.82,3.78,1.81a22.13,22.13,0,0,1,.34,2.79h.57a21.17,21.17,0,0,0-.35-2.88c.62-.18,1.79-1.59,2.58-3.62a14.09,14.09,0,0,0,.73-3.2,25.5,25.5,0,0,0,.18-2.92c0-.15-.22-.18-.29,0l-1.24,2.72c-.51,1.07-1,2.15-1.35,3a21.27,21.27,0,0,0-.89,2.68c-.11-.5-.25-1-.37-1.48l-.44-1.45a3.1,3.1,0,0,0,1.06-1.25,11.18,11.18,0,0,0,1-2.64,14.46,14.46,0,0,0,.36-3.24,26.26,26.26,0,0,0-.15-2.89c0-.15-.24-.15-.28,0-.2.65-.57,1.73-.94,2.83s-.78,2.25-1,3.12a21.27,21.27,0,0,0-.56,2.75c-.36-.94-.73-1.88-1.17-2.79a3.05,3.05,0,0,0,.92-1.38,12,12,0,0,0,.73-2.73,15.07,15.07,0,0,0,0-3.23,26.3,26.3,0,0,0-.43-2.84.15.15,0,0,0-.29,0c-.13.66-.39,1.77-.65,2.9s-.53,2.31-.66,3.2a22,22,0,0,0-.24,2.8l-.7-1.35-.77-1.3a3.08,3.08,0,0,0,.76-1.47,12.41,12.41,0,0,0,.45-2.78,16.77,16.77,0,0,0-.31-3.22c-.25-1.11-.57-2.18-.77-2.83-.05-.15-.28-.1-.29.06-.07.68-.18,1.81-.3,3s-.31,2.36-.33,3.25a22.6,22.6,0,0,0,0,2.81l-.83-1.26L441,416a3.29,3.29,0,0,0,.62-1.54,11.91,11.91,0,0,0,.12-2.83,13.52,13.52,0,0,0-.74-3.22,28.39,28.39,0,0,0-1.19-2.75.15.15,0,0,0-.28.09c.05.7.09,1.87.14,3s0,2.41.11,3.3a21.85,21.85,0,0,0,.36,2.8,29,29,0,0,0-2-2.28,3.11,3.11,0,0,0,.42-1.61,10.8,10.8,0,0,0-.27-2.84,7.91,7.91,0,0,0-.49-1.5A15.55,15.55,0,0,0,437,405a19.27,19.27,0,0,0-1.68-2.56.15.15,0,0,0-.26.13c.08.35.2.8.32,1.31s.23,1.1.35,1.69c.25,1.15.41,2.39.62,3.27.14.54.26,1.05.38,1.52s.25.86.37,1.2l-1.12-1c-.37-.34-.79-.64-1.18-1A3,3,0,0,0,435,408a10.45,10.45,0,0,0-.73-2.78,13.08,13.08,0,0,0-.74-1.42c-.31-.5-.69-1-1.06-1.47a17.44,17.44,0,0,0-2.19-2.24.15.15,0,0,0-.24.17c.16.33.37.75.59,1.24l.68,1.6c.42,1.11.87,2.27,1.2,3.14.22.52.43,1,.63,1.43s.38.83.55,1.15l-.92-.63-.95-.56a1.44,1.44,0,0,0-.28-.53,4,4,0,0,0-.66-.61,7.6,7.6,0,0,0-2.21-1.18,9,9,0,0,0-2.91-.47,10.47,10.47,0,0,0-2.55.25c-.13,0-.12.26,0,.29a21.76,21.76,0,0,1,2.26.84c.88.37,1.77.81,2.49,1.06a9.14,9.14,0,0,0,3.5.79l1,.56.92.62a9,9,0,0,0-1.2-.05,12.9,12.9,0,0,0-1.41.2,7.33,7.33,0,0,0-1.35.42,11.27,11.27,0,0,0-1.4.68c-.45.26-.87.53-1.22.78s-.66.52-.88.7-.1.29,0,.27c.43-.14,1.18-.3,2-.47Z" style="fill:#92E3A9"></path><path d="M450,416.53c1.4,2.91,2.9,5,3.56,5.13.12,1.86.25,3.72.41,5.57a37.34,37.34,0,0,0-1.84-4.09,79.88,79.88,0,0,0-4.81-7.53c-.12-.17-.3,0-.23.25a60.79,60.79,0,0,0,3.41,9.12c1.48,2.86,3,4.88,3.72,5q.24,2.44.54,4.89h.57c-.2-1.64-.38-3.29-.54-4.94.62-.19,1.78-2.48,2.86-5.5.91-2.61,1.91-7.12,2.37-9.08.05-.23-.15-.4-.26-.23a46.9,46.9,0,0,0-4,7.76,26.77,26.77,0,0,0-1.22,4.42c-.17-1.89-.3-3.79-.42-5.68.63-.17,1.87-2.42,3-5.41,1-2.58,2.15-7.05,2.67-9,.06-.22-.13-.4-.25-.23a47,47,0,0,0-4.24,7.61A28.47,28.47,0,0,0,454,419c-.09-1.9-.17-3.79-.23-5.69.63-.15,1.94-2.36,3.22-5.3.53-1.27,1.14-3,1.66-4.68s1.1-3,1.4-3.92c.07-.2-.12-.38-.24-.23-.53.65-1.4,1.77-2.3,3.06-.22.32-.45.66-.67,1s-.41.71-.61,1.06c-.39.71-.74,1.4-1,2a28.29,28.29,0,0,0-1.51,4.33c0-1.9-.06-3.8,0-5.7.32-.06.83-.63,1.42-1.55a35.09,35.09,0,0,0,2.06-3.5c.15-.29.31-.61.47-1l.54-1.07c.37-.74.73-1.51,1.07-2.27s.72-1.47,1-2.12l.8-1.63c.1-.2-.06-.4-.2-.27-.62.6-1.63,1.61-2.68,2.8a28.47,28.47,0,0,0-2.69,3.75,9.73,9.73,0,0,0-.57,1.11q-.26.54-.48,1.08c-.29.71-.54,1.38-.73,2,.1-1.89.12-3.78.39-5.66.66-.06,2.19-2.07,4-4.62,1.46-2.23,3.75-6,4.78-7.62.12-.18,0-.41-.17-.28-.68.53-1.8,1.44-3,2.51a31.43,31.43,0,0,0-3.1,3.45A28.43,28.43,0,0,0,454.4,394l.49-2.8.24-1.4.32-1.38a3.79,3.79,0,0,0,1.72-1.19c.76-.76,1.76-1.79,2.77-3,.84-1,2-2.45,3-3.79l2.57-3.36c.14-.17,0-.4-.14-.3-.74.46-1.91,1.28-3.18,2.23a28.52,28.52,0,0,0-3.44,3.13,26.39,26.39,0,0,0-2.67,3.69l.78-2.74.39-1.36.45-1.35c.65.08,2.62-1.54,4.88-3.71,1.95-1.89,4.84-5.25,6.21-6.61.15-.16.05-.41-.12-.31a37.68,37.68,0,0,0-3.38,1.93c-.66.42-1.36.87-2,1.35s-1.22,1-1.73,1.44a21.17,21.17,0,0,0-1.69,1.76c-.5.58-.95,1.14-1.32,1.66.51-1.29,1-2.61,1.52-3.88a7.4,7.4,0,0,0,1.51-2.07c.66-1.06,1.35-2.46,2.14-4,.33-.68.68-1.47,1.07-2.29l.56-1.26c.19-.43.39-.85.58-1.27.76-1.68,1.49-3.26,2-4.2.11-.21-.08-.35-.25-.17a41.31,41.31,0,0,0-3,3.67c-.28.38-.55.77-.83,1.16s-.51.8-.77,1.19c-.5.78-.93,1.56-1.28,2.25a30.47,30.47,0,0,0-1.66,4,10.2,10.2,0,0,0-.54,2.6l-.42,1-.38,1-.76,2c.06-.62.1-1.33.12-2.09s0-1.58,0-2.43,0-1.51-.09-2.35-.11-1.7-.17-2.53c-.14-1.69-.23-3.26-.31-4.23,0-.21-.27-.13-.33.12-.13.53-.29,1.24-.48,2s-.32,1.72-.47,2.65-.25,1.88-.34,2.78a19.88,19.88,0,0,0-.11,2.47c.05,3.3.69,5.8,1.24,6.19l-.44,1.33c-.14.44-.26.89-.39,1.34l-.77,2.7a37.77,37.77,0,0,0-.29-4.52c-.1-1.4-.43-3.18-.71-4.84s-.53-3.23-.69-4.18c0-.21-.29-.1-.33.14-.14,1.11-.39,2.89-.5,4.77a32.78,32.78,0,0,0,.05,5.29,19.64,19.64,0,0,0,.84,4.13,4,4,0,0,0,1,1.91l-.31,1.36-.24,1.38-.48,2.77a39.47,39.47,0,0,0-.76-4.47c-.26-1.39-.73-3.12-1.2-4.76s-.82-3.16-1.08-4.1c-.06-.21-.3-.08-.31.18a42.78,42.78,0,0,0,.55,10.08c.67,3.24,1.87,5.56,2.48,5.82-.26,1.86-.29,3.73-.38,5.59-.14-.6-.32-1.28-.54-2l-.37-1.13c-.13-.39-.26-.79-.38-1.2-.4-1.35-1.09-3-1.72-4.61s-1.15-3.07-1.5-4c-.08-.2-.3,0-.29.21,0,.56.1,1.29.16,2.13s.13,1.74.3,2.69.33,1.9.51,2.79c.1.45.18.87.29,1.28s.25.79.37,1.13a24.86,24.86,0,0,0,1.71,3.86c.58.94,1.08,1.53,1.4,1.63,0,1.87,0,3.73,0,5.59a38.22,38.22,0,0,0-1.56-4.21c-.28-.64-.63-1.35-1-2.08l-.59-1.11L449.4,402c-.8-1.53-1.54-2.95-2-3.81-.11-.2-.31,0-.26.24.21,1.11.56,2.93,1,4.76a40.8,40.8,0,0,0,1.66,4.86c1.3,3,2.73,5.08,3.39,5.25.06,1.86.13,3.72.23,5.59a37.11,37.11,0,0,0-1.7-4.16,83.14,83.14,0,0,0-4.56-7.68c-.12-.18-.31,0-.25.24A62.3,62.3,0,0,0,450,416.53Z" style="fill:#92E3A9"></path><path d="M459.32,431.29a32.39,32.39,0,0,0-.64,3.54v.05h.57a29.57,29.57,0,0,1,.63-3.46c.63.06,2.29-.95,4-2.3,1.49-1.18,3.55-3.3,4.48-4.2.11-.11,0-.28-.18-.22a25,25,0,0,0-5.69,2.91,12.73,12.73,0,0,0-2.25,2.18c.32-1.17.66-2.33,1-3.48.63.12,2.37-.75,4.22-2a58.42,58.42,0,0,0,4.78-4c.11-.1,0-.28-.17-.24-.64.21-1.7.58-2.82,1a20.11,20.11,0,0,0-3.05,1.56,12.71,12.71,0,0,0-2.41,2c.39-1.14.83-2.27,1.28-3.4.64.17,2.42-.6,4.35-1.73a52,52,0,0,0,5-3.77.14.14,0,0,0-.15-.24c-.66.18-1.74.51-2.88.91a21.66,21.66,0,0,0-3.15,1.4,14.19,14.19,0,0,0-2.53,1.88c.49-1.11,1-2.23,1.49-3.32.62.2,2.45-.46,4.44-1.52a27,27,0,0,0,2.83-1.84c1-.67,1.83-1.32,2.35-1.71.12-.09,0-.28-.14-.25a28.41,28.41,0,0,0-6.13,2.05,15.2,15.2,0,0,0-2.62,1.75c.55-1.08,1.08-2.17,1.65-3.24.6.23,2.47-.36,4.5-1.33a58.8,58.8,0,0,0,5.33-3.27c.12-.08,0-.28-.14-.25a26.66,26.66,0,0,0-6.2,1.73,14.19,14.19,0,0,0-2.69,1.63c.58-1.06,1.17-2.12,1.79-3.16.58.25,2.48-.24,4.55-1.1,1.78-.77,4.35-2.3,5.46-2.92.13-.07,0-.27-.12-.26-.67.06-1.77.2-2.95.41a18.35,18.35,0,0,0-3.31.93,13,13,0,0,0-2.77,1.49c.63-1,1.29-2,1.95-3.07.58.29,2.49-.12,4.6-.83.91-.3,2-.81,3-1.27s2-.87,2.51-1.11c.13-.06.06-.26-.09-.26a23.05,23.05,0,0,0-2.93.1,15.8,15.8,0,0,0-3.34.66,13,13,0,0,0-2.85,1.31c.51-.72,1-1.45,1.55-2.16.66-.1,2-1.38,3.37-3,.3-.36.64-.79,1-1.27l1-1.42a26.48,26.48,0,0,1,1.86-2.33.15.15,0,0,0-.17-.24,15.49,15.49,0,0,0-2.68,1.56c-.5.35-1,.76-1.45,1.15a14.44,14.44,0,0,0-1.17,1.2,8.64,8.64,0,0,0-2.15,3.95c-.55.72-1.06,1.47-1.58,2.2a22.51,22.51,0,0,0,.35-3.1c.05-1,0-2.33,0-3.6s-.08-2.49-.08-3.25c0-.17-.24-.19-.3,0a28.25,28.25,0,0,0-1,3.15,18.09,18.09,0,0,0-.63,3.6c-.12,2.33.28,4.24.74,4.7-.65,1-1.3,2-1.91,3a23.13,23.13,0,0,0,.16-3.11c0-1-.15-2.31-.32-3.56s-.31-2.44-.4-3.17a.15.15,0,0,0-.3,0,27.82,27.82,0,0,0-1.07,6.73c0,2.32.52,4.2,1,4.64-.61,1-1.19,2.07-1.76,3.11a20,20,0,0,0,0-3.11c-.15-2-.85-5.2-1.12-6.63a.15.15,0,0,0-.3,0,28.85,28.85,0,0,0-.67,6.71c.17,2.31.73,4.17,1.25,4.58-.56,1.05-1.09,2.12-1.62,3.19a19.62,19.62,0,0,0-.14-3.11A59.6,59.6,0,0,0,464,405a.15.15,0,0,0-.3,0c-.1.71-.25,1.89-.34,3.14a21.09,21.09,0,0,0,0,3.57c.26,2.29.9,4.13,1.44,4.52-.52,1.07-1,2.17-1.47,3.26a18.29,18.29,0,0,0-.29-3.1,29.42,29.42,0,0,0-.83-3.46c-.33-1.2-.68-2.33-.9-3a.16.16,0,0,0-.3,0,31.35,31.35,0,0,0,0,6.74c.36,2.28,1.12,4.09,1.67,4.45-.45,1.11-.88,2.22-1.27,3.34a23.79,23.79,0,0,0-.47-3.08,33.92,33.92,0,0,0-1-3.42c-.39-1.19-.79-2.31-1-3a.15.15,0,0,0-.29,0,28.62,28.62,0,0,0,.3,6.78c.49,2.28,1.36,4,1.94,4.35-.38,1.14-.71,2.28-1,3.44a24.52,24.52,0,0,0-.69-3.05c-.57-1.92-1.9-5-2.44-6.31a.15.15,0,0,0-.29.06,27.19,27.19,0,0,0,.71,6.81C457.7,429.35,458.71,431,459.32,431.29Z" style="fill:#92E3A9"></path><path d="M399.36,420l.82-.14c.57-.13,1.12-.24,1.59-.38a2.73,2.73,0,0,0,1-.4c.24.19.5.37.73.58l.69.63a4.92,4.92,0,0,0-.76-.14,4.46,4.46,0,0,0-.91,0,7,7,0,0,0-1.87.39c-.32.1-.62.22-.88.33s-.48.24-.65.33-.1.17,0,.17c.31,0,.81,0,1.38,0,.29,0,.58,0,.88,0h.84c.59,0,1.18-.06,1.64-.11a2.47,2.47,0,0,0,1-.26c.44.44.83.92,1.23,1.4a5.68,5.68,0,0,0-1.63-.41,7.51,7.51,0,0,0-1.92.09,11.25,11.25,0,0,0-1.63.39c-.09,0-.13.15-.06.16l1.4.22c.56.12,1.21.21,1.72.29a14.72,14.72,0,0,0,1.66.11,2.31,2.31,0,0,0,1-.12l.56.76.51.77a6.17,6.17,0,0,0-1.58-.59,8.29,8.29,0,0,0-1.94-.17,15,15,0,0,0-1.69.13c-.08,0-.14.13-.07.16l1.38.44a16,16,0,0,0,1.72.53,13.14,13.14,0,0,0,1.63.31,2.63,2.63,0,0,0,1.05,0l.47.8.43.83a5.88,5.88,0,0,0-1.51-.75,8.41,8.41,0,0,0-1.91-.37,12.4,12.4,0,0,0-1.72-.07c-.09,0-.16.12-.09.15.32.13.8.37,1.36.61a17.29,17.29,0,0,0,1.65.7,13,13,0,0,0,1.59.47,2.41,2.41,0,0,0,1,.09c.27.57.5,1.15.72,1.73a6.23,6.23,0,0,0-1.42-.92,8.34,8.34,0,0,0-1.86-.57,15.68,15.68,0,0,0-1.69-.24c-.09,0-.17.1-.11.14.3.16.75.45,1.28.74s1.09.63,1.55.87a7,7,0,0,0,2.56.85l.27.89.23.91a5.47,5.47,0,0,0-1.3-1.08,8.33,8.33,0,0,0-1.77-.78,15.53,15.53,0,0,0-1.65-.41c-.09,0-.18.08-.12.12.25.2.71.51,1.17.87s1,.74,1.44,1a7.2,7.2,0,0,0,2.41,1.16,13.52,13.52,0,0,1,.22,1.78h.36a11.28,11.28,0,0,0-.22-1.84,4.3,4.3,0,0,0,1.65-2.31,9.52,9.52,0,0,0,.47-2.05,16,16,0,0,0,.11-1.87c0-.09-.14-.11-.18,0l-.79,1.74c-.33.68-.65,1.37-.87,1.92a16.89,16.89,0,0,0-.57,1.7c-.07-.31-.15-.62-.23-.94l-.28-.92a2,2,0,0,0,.67-.81,6.68,6.68,0,0,0,.66-1.68,9.23,9.23,0,0,0,.23-2.07,17.48,17.48,0,0,0-.09-1.85c0-.1-.16-.1-.19,0-.12.41-.36,1.1-.59,1.8s-.5,1.44-.64,2a12.86,12.86,0,0,0-.35,1.76c-.23-.6-.47-1.21-.75-1.79a2,2,0,0,0,.59-.88,7.9,7.9,0,0,0,.46-1.74,9.48,9.48,0,0,0,0-2.07,17.05,17.05,0,0,0-.28-1.82c0-.09-.16-.08-.18,0-.08.42-.25,1.13-.41,1.85s-.34,1.48-.43,2.05a13.12,13.12,0,0,0-.15,1.78L409,426l-.49-.84a2,2,0,0,0,.49-.94,8.11,8.11,0,0,0,.28-1.78,11.16,11.16,0,0,0-.19-2.05c-.16-.71-.37-1.39-.5-1.81,0-.09-.18-.06-.18,0-.05.43-.12,1.15-.2,1.91S408,422,408,422.6a16.53,16.53,0,0,0,0,1.79l-.53-.81-.58-.77a2,2,0,0,0,.4-1,7.74,7.74,0,0,0,.08-1.8,9.26,9.26,0,0,0-.47-2.06,17.51,17.51,0,0,0-.77-1.76.1.1,0,0,0-.18.06c0,.45.06,1.19.1,1.94s0,1.54.06,2.11a15,15,0,0,0,.23,1.79c-.41-.5-.82-1-1.28-1.46a2,2,0,0,0,.27-1,7.25,7.25,0,0,0-.17-1.81,5.4,5.4,0,0,0-.32-1,8.7,8.7,0,0,0-.48-1,12.33,12.33,0,0,0-1.07-1.64c-.06-.08-.19,0-.17.09s.13.51.21.84.15.7.22,1.07c.16.74.26,1.53.4,2.09.09.35.17.67.24,1a8,8,0,0,0,.24.77l-.72-.65c-.24-.22-.5-.41-.75-.61a2,2,0,0,0,.1-1.06,6.53,6.53,0,0,0-.46-1.77,6.76,6.76,0,0,0-.48-.91,9.55,9.55,0,0,0-.67-.94,11.47,11.47,0,0,0-1.4-1.44.1.1,0,0,0-.15.12l.38.79c.13.31.27.66.43,1,.27.71.55,1.45.77,2,.13.34.27.65.4.92s.24.53.35.74l-.59-.4-.61-.37a.94.94,0,0,0-.18-.34,2.3,2.3,0,0,0-.42-.38A5,5,0,0,0,399,416a6.19,6.19,0,0,0-1.86-.3,6.84,6.84,0,0,0-1.63.16c-.08,0-.07.17,0,.19a14.43,14.43,0,0,1,1.44.54c.56.23,1.13.51,1.59.67a5.92,5.92,0,0,0,2.24.51l.6.36c.2.12.39.26.59.39a6,6,0,0,0-.76,0,7.86,7.86,0,0,0-.91.12,4.5,4.5,0,0,0-.86.28,8.07,8.07,0,0,0-.89.43c-.29.17-.56.34-.79.5l-.56.45c-.06,0-.06.18,0,.17.28-.09.76-.19,1.3-.3Z" style="fill:#92E3A9"></path><path d="M412.66,423.15c.89,1.86,1.85,3.18,2.27,3.28.08,1.19.17,2.38.27,3.56a26.76,26.76,0,0,0-1.17-2.62,53.07,53.07,0,0,0-3.08-4.8c-.08-.12-.19,0-.15.16a39.5,39.5,0,0,0,2.18,5.82c.95,1.83,1.95,3.12,2.38,3.2.1,1.05.21,2.09.34,3.13h.37c-.13-1.05-.25-2.1-.35-3.16.4-.12,1.14-1.58,1.83-3.51.58-1.67,1.22-4.55,1.51-5.81,0-.14-.09-.25-.16-.14a30.13,30.13,0,0,0-2.55,5,17,17,0,0,0-.78,2.82c-.11-1.21-.19-2.42-.27-3.63.4-.11,1.19-1.55,1.94-3.45.64-1.65,1.37-4.51,1.71-5.75,0-.14-.09-.26-.16-.15a29.82,29.82,0,0,0-2.72,4.87,17.65,17.65,0,0,0-.87,2.79q-.09-1.82-.15-3.63c.41-.1,1.24-1.51,2.06-3.39.34-.81.73-1.93,1.06-3s.7-1.94.9-2.5c0-.13-.08-.25-.16-.15-.34.41-.9,1.13-1.47,1.95-.14.21-.29.42-.43.64s-.26.45-.38.68c-.25.45-.48.9-.66,1.3a18.84,18.84,0,0,0-1,2.77c0-1.21,0-2.43,0-3.64.21,0,.53-.41.91-1a22.26,22.26,0,0,0,1.32-2.24l.29-.61.35-.68c.23-.47.47-1,.69-1.45s.45-.94.66-1.36l.51-1c.06-.12,0-.25-.13-.17-.39.38-1,1-1.71,1.79a18.15,18.15,0,0,0-1.72,2.4,7.88,7.88,0,0,0-.37.7c-.1.24-.21.47-.3.69-.19.46-.35.89-.47,1.27.07-1.21.08-2.42.25-3.62.43,0,1.4-1.32,2.56-2.95.94-1.43,2.4-3.85,3.06-4.87.07-.12,0-.26-.11-.18-.43.34-1.15.92-1.9,1.61a19.86,19.86,0,0,0-2,2.2,18.5,18.5,0,0,0-1.44,2.52l.31-1.79.15-.89.21-.89c.21,0,.6-.28,1.1-.76s1.12-1.14,1.77-1.9,1.25-1.57,1.89-2.43l1.65-2.14c.08-.11,0-.26-.09-.19-.48.29-1.23.81-2,1.42a18.81,18.81,0,0,0-2.2,2,17,17,0,0,0-1.7,2.36l.49-1.75.25-.87.29-.86c.42.05,1.67-1,3.12-2.37,1.24-1.21,3.09-3.36,4-4.23.09-.1,0-.26-.08-.2-.49.26-1.32.69-2.16,1.23-.42.28-.87.57-1.27.87s-.78.62-1.1.92a11.46,11.46,0,0,0-1.09,1.13c-.32.37-.6.73-.84,1.05.33-.82.62-1.66,1-2.47a4.69,4.69,0,0,0,1-1.33c.42-.67.86-1.57,1.36-2.54.22-.43.44-.93.69-1.46l.36-.8c.12-.28.24-.55.37-.82.48-1.07.95-2.08,1.26-2.68.07-.13-.05-.22-.16-.1a27.68,27.68,0,0,0-1.89,2.34c-.18.24-.35.49-.53.74s-.33.51-.49.76a14.71,14.71,0,0,0-.82,1.44,20.22,20.22,0,0,0-1.06,2.54,6,6,0,0,0-.34,1.66l-.27.62-.25.64-.49,1.27c0-.4.07-.85.08-1.34s0-1,0-1.55,0-1-.06-1.5-.07-1.09-.1-1.62c-.09-1.08-.15-2.08-.2-2.7,0-.14-.18-.08-.21.07L417,391c-.1.52-.2,1.1-.3,1.69s-.16,1.21-.22,1.78a12.71,12.71,0,0,0-.07,1.58c0,2.11.44,3.7.8,4l-.29.85c-.09.28-.16.57-.25.86l-.49,1.72a24.73,24.73,0,0,0-.18-2.88c-.07-.9-.28-2-.45-3.1s-.35-2.06-.45-2.67c0-.13-.18-.07-.21.09-.09.71-.25,1.85-.32,3.05a19.67,19.67,0,0,0,0,3.38,12.61,12.61,0,0,0,.53,2.64,2.5,2.5,0,0,0,.64,1.22l-.2.87-.15.88-.31,1.77a21.34,21.34,0,0,0-.49-2.85c-.16-.89-.46-2-.76-3.05s-.53-2-.69-2.62c0-.13-.19-.05-.2.12a27.35,27.35,0,0,0,.35,6.44c.43,2.07,1.2,3.56,1.59,3.72-.17,1.18-.19,2.38-.25,3.57-.08-.38-.2-.82-.34-1.29-.07-.23-.15-.47-.23-.72s-.17-.51-.25-.77c-.25-.86-.7-1.93-1.1-2.95s-.73-2-1-2.54c0-.13-.19,0-.18.13l.1,1.36a16.41,16.41,0,0,0,.19,1.72c.1.6.21,1.21.33,1.78.06.29.12.56.19.82s.15.5.23.72a15.39,15.39,0,0,0,1.09,2.47c.37.6.69,1,.9,1,0,1.2,0,2.39,0,3.58a20.56,20.56,0,0,0-1-2.69,14.5,14.5,0,0,0-.64-1.34l-.38-.7-.37-.73L411,411.44c-.06-.13-.19,0-.16.15.13.71.36,1.87.64,3a27.31,27.31,0,0,0,1.06,3.11c.83,1.89,1.75,3.24,2.17,3.35,0,1.2.08,2.38.14,3.57a24.38,24.38,0,0,0-1.08-2.65,54.08,54.08,0,0,0-2.92-4.91c-.07-.12-.19,0-.15.15A38.21,38.21,0,0,0,412.66,423.15Z" style="fill:#92E3A9"></path><path d="M418.59,432.59a20.93,20.93,0,0,0-.41,2.26,0,0,0,0,0,0,0h.35a20.94,20.94,0,0,1,.41-2.21,6.49,6.49,0,0,0,2.58-1.47c1-.75,2.27-2.11,2.87-2.69.06-.06,0-.17-.12-.14a16.53,16.53,0,0,0-3.64,1.86,8,8,0,0,0-1.43,1.4c.2-.75.41-1.49.66-2.22a6.33,6.33,0,0,0,2.7-1.28,34.93,34.93,0,0,0,3.05-2.54c.07-.06,0-.18-.1-.15-.42.14-1.09.37-1.81.66a12.64,12.64,0,0,0-1.95,1,8.54,8.54,0,0,0-1.54,1.29c.25-.73.53-1.45.82-2.17a6.2,6.2,0,0,0,2.78-1.11,31.94,31.94,0,0,0,3.2-2.41c.08-.06,0-.18-.1-.16-.42.12-1.11.33-1.83.59a13.71,13.71,0,0,0-2,.89,9.74,9.74,0,0,0-1.61,1.2c.31-.71.61-1.42,1-2.12a5.9,5.9,0,0,0,2.84-1,20.19,20.19,0,0,0,1.81-1.17c.61-.43,1.16-.85,1.5-1.1.07-.06,0-.18-.1-.16a18.48,18.48,0,0,0-3.91,1.31,9.56,9.56,0,0,0-1.68,1.12c.35-.69.69-1.39,1.06-2.07a6,6,0,0,0,2.87-.85,35.85,35.85,0,0,0,3.41-2.09c.08-.05,0-.18-.09-.16a17.12,17.12,0,0,0-4,1.11,8.74,8.74,0,0,0-1.72,1c.37-.68.75-1.36,1.14-2a6,6,0,0,0,2.91-.71c1.14-.49,2.78-1.47,3.49-1.86.08,0,0-.18-.08-.17-.42,0-1.13.13-1.88.27a11.26,11.26,0,0,0-2.11.59,8.19,8.19,0,0,0-1.77,1c.39-.66.82-1.31,1.24-2a6.14,6.14,0,0,0,2.94-.53c.58-.19,1.29-.52,1.94-.81l1.61-.72c.08,0,0-.16-.06-.16a13.11,13.11,0,0,0-1.87.07,10,10,0,0,0-2.14.41,8.4,8.4,0,0,0-1.82.85c.33-.47.65-.93,1-1.39a6.13,6.13,0,0,0,2.15-1.93c.2-.24.41-.51.62-.81l.67-.91a15.2,15.2,0,0,1,1.18-1.49c.06-.07,0-.2-.11-.15a9.12,9.12,0,0,0-1.71,1c-.32.23-.63.49-.92.74a8.85,8.85,0,0,0-.75.76,5.48,5.48,0,0,0-1.38,2.53c-.35.46-.67.94-1,1.41a15.07,15.07,0,0,0,.23-2c0-.65,0-1.49,0-2.31s-.05-1.59-.05-2.07c0-.11-.15-.13-.2,0-.17.46-.45,1.21-.66,2a12,12,0,0,0-.4,2.3,5.3,5.3,0,0,0,.48,3c-.42.64-.84,1.28-1.23,1.93a14.3,14.3,0,0,0,.1-2,20.18,20.18,0,0,0-.2-2.27c-.1-.81-.2-1.56-.26-2a.1.1,0,0,0-.19,0,17.77,17.77,0,0,0-.68,4.29,5.37,5.37,0,0,0,.65,3c-.39.66-.76,1.32-1.13,2a13,13,0,0,0,0-2c-.1-1.27-.55-3.32-.72-4.23a.1.1,0,0,0-.19,0,19,19,0,0,0-.43,4.29,5.47,5.47,0,0,0,.8,2.93c-.36.67-.7,1.35-1,2a13,13,0,0,0-.08-2,39,39,0,0,0-.93-4.18.1.1,0,0,0-.19,0c-.07.46-.16,1.21-.22,2a13.26,13.26,0,0,0,0,2.28,5.39,5.39,0,0,0,.92,2.89c-.33.68-.63,1.38-.94,2.08a12,12,0,0,0-.18-2,19.9,19.9,0,0,0-.53-2.21c-.22-.76-.44-1.49-.58-1.93a.1.1,0,0,0-.19,0,19.76,19.76,0,0,0,0,4.3,5.33,5.33,0,0,0,1.07,2.85c-.29.71-.57,1.42-.82,2.14a12.32,12.32,0,0,0-.3-2,19.81,19.81,0,0,0-.65-2.19c-.25-.76-.5-1.47-.66-1.91a.1.1,0,0,0-.19,0,18.72,18.72,0,0,0,.19,4.33,5.17,5.17,0,0,0,1.25,2.78c-.25.72-.46,1.46-.66,2.19a14.77,14.77,0,0,0-.45-1.94c-.36-1.23-1.21-3.17-1.55-4a.1.1,0,0,0-.19,0,17.13,17.13,0,0,0,.46,4.36A5.07,5.07,0,0,0,418.59,432.59Z" style="fill:#92E3A9"></path><path d="M484.48,414.28c1.57,3.27,3.25,5.59,4,5.76.14,2.09.28,4.17.46,6.26a43.1,43.1,0,0,0-2.06-4.6,93.5,93.5,0,0,0-5.39-8.45c-.14-.19-.35,0-.27.29A69.14,69.14,0,0,0,485,423.76c1.67,3.22,3.44,5.48,4.18,5.63q.27,2.75.61,5.49h.64q-.34-2.76-.61-5.55c.7-.21,2-2.78,3.21-6.17,1-2.93,2.15-8,2.66-10.19.06-.25-.17-.45-.29-.25a53.44,53.44,0,0,0-4.48,8.7,31.31,31.31,0,0,0-1.37,5c-.18-2.12-.33-4.25-.47-6.37.71-.19,2.1-2.72,3.41-6.07,1.12-2.9,2.4-7.91,3-10.09.07-.25-.15-.45-.28-.26a53.29,53.29,0,0,0-4.76,8.54,31.56,31.56,0,0,0-1.53,4.92q-.17-3.19-.27-6.39c.72-.16,2.19-2.65,3.61-6,.61-1.42,1.29-3.38,1.87-5.24s1.24-3.41,1.57-4.41c.08-.22-.13-.43-.26-.26-.6.74-1.58,2-2.59,3.44-.25.36-.5.74-.75,1.12s-.46.79-.68,1.19c-.44.79-.84,1.57-1.15,2.29a31.54,31.54,0,0,0-1.69,4.85c0-2.13-.07-4.26-.05-6.39.36-.07.93-.71,1.6-1.74a41.79,41.79,0,0,0,2.31-3.92c.17-.33.35-.69.52-1.08s.4-.78.61-1.19c.41-.83.82-1.7,1.2-2.55s.81-1.66,1.17-2.38l.9-1.83c.1-.22-.08-.45-.23-.3-.69.67-1.82,1.81-3,3.14a31.64,31.64,0,0,0-3,4.21,9.23,9.23,0,0,0-.65,1.24c-.19.41-.37.82-.53,1.21-.33.8-.61,1.55-.82,2.23.11-2.12.13-4.25.43-6.35.75-.07,2.46-2.32,4.5-5.18,1.64-2.52,4.21-6.76,5.37-8.56.13-.21,0-.45-.2-.32-.76.6-2,1.62-3.32,2.82a35,35,0,0,0-3.48,3.87,32.13,32.13,0,0,0-2.54,4.43l.55-3.14.27-1.58.36-1.55c.36,0,1.06-.49,1.93-1.34s2-2,3.11-3.33c.94-1.16,2.2-2.75,3.32-4.26l2.89-3.77c.16-.19,0-.45-.16-.34-.83.52-2.15,1.43-3.58,2.51a32.37,32.37,0,0,0-3.86,3.51,30.7,30.7,0,0,0-3,4.14l.87-3.07.44-1.53.51-1.51c.73.09,2.93-1.74,5.48-4.17,2.18-2.12,5.43-5.89,7-7.42.17-.18.07-.45-.13-.35-.86.45-2.32,1.2-3.8,2.16-.73.48-1.52,1-2.23,1.53s-1.37,1.09-1.93,1.62a21.9,21.9,0,0,0-1.91,2c-.56.65-1.06,1.28-1.48,1.86.58-1.45,1.09-2.92,1.71-4.35a8,8,0,0,0,1.69-2.33c.75-1.19,1.52-2.76,2.4-4.46.38-.76.78-1.64,1.21-2.56.2-.47.41-.94.63-1.42s.43-.95.65-1.43c.85-1.88,1.67-3.65,2.22-4.7.12-.24-.09-.4-.28-.19a46.79,46.79,0,0,0-3.33,4.11L500,355l-.86,1.34a25.13,25.13,0,0,0-1.44,2.52,34,34,0,0,0-1.87,4.46,10.73,10.73,0,0,0-.6,2.92l-.47,1.1-.43,1.11-.86,2.23c.07-.7.12-1.49.14-2.34s0-1.78,0-2.73,0-1.7-.1-2.64-.13-1.91-.19-2.84c-.16-1.9-.26-3.65-.34-4.74,0-.25-.31-.15-.38.13l-.53,2.29c-.18.92-.36,1.93-.53,3s-.28,2.12-.38,3.12a23.06,23.06,0,0,0-.13,2.77c.05,3.71.78,6.52,1.4,6.95l-.5,1.49c-.16.5-.3,1-.44,1.51l-.86,3a45.64,45.64,0,0,0-.32-5.06c-.12-1.58-.49-3.57-.8-5.44s-.6-3.62-.78-4.68c0-.25-.32-.12-.37.15-.15,1.24-.44,3.24-.56,5.35a36.12,36.12,0,0,0,.06,5.94,22.07,22.07,0,0,0,.94,4.63,4.4,4.4,0,0,0,1.13,2.15l-.36,1.53-.27,1.55-.53,3.1a44.38,44.38,0,0,0-.86-5c-.28-1.56-.82-3.5-1.34-5.35s-.93-3.54-1.22-4.6c-.06-.24-.33-.08-.34.2-.15,2.5-.18,8.13.61,11.32.75,3.64,2.1,6.24,2.79,6.53-.3,2.08-.33,4.18-.44,6.28-.15-.68-.35-1.45-.6-2.27-.13-.41-.26-.84-.41-1.28s-.3-.88-.42-1.34c-.46-1.51-1.23-3.4-1.93-5.18s-1.3-3.44-1.69-4.47c-.09-.23-.34,0-.33.24l.18,2.38c.08.93.15,2,.34,3s.37,2.14.57,3.14c.11.5.21,1,.33,1.43s.28.88.42,1.27a27.24,27.24,0,0,0,1.91,4.34c.65,1,1.21,1.71,1.57,1.82,0,2.1,0,4.19,0,6.28a40.1,40.1,0,0,0-1.76-4.73c-.31-.72-.7-1.52-1.13-2.34l-.66-1.24-.65-1.27c-.89-1.72-1.72-3.31-2.23-4.27-.12-.23-.34,0-.29.27.24,1.25.63,3.28,1.13,5.34a45.77,45.77,0,0,0,1.87,5.45c1.45,3.32,3.06,5.7,3.79,5.89q.11,3.13.26,6.27a43.41,43.41,0,0,0-1.9-4.66,98.31,98.31,0,0,0-5.12-8.63c-.13-.2-.35,0-.28.28A69,69,0,0,0,484.48,414.28Z" style="fill:#92E3A9"></path><path d="M494.89,430.85a37.48,37.48,0,0,0-.72,4s0,0,0,.06h.63a34.34,34.34,0,0,1,.71-3.88c.71.07,2.57-1.07,4.53-2.58,1.68-1.33,4-3.71,5-4.72.12-.12,0-.31-.2-.25a28.77,28.77,0,0,0-6.4,3.27,14.43,14.43,0,0,0-2.52,2.45c.36-1.31.74-2.62,1.17-3.9.7.13,2.66-.85,4.74-2.24a66.45,66.45,0,0,0,5.36-4.46c.12-.11,0-.31-.19-.26-.72.23-1.91.64-3.16,1.15a22,22,0,0,0-3.44,1.75,14.91,14.91,0,0,0-2.7,2.27c.45-1.29.94-2.55,1.45-3.81.7.18,2.7-.68,4.88-1.95a57.61,57.61,0,0,0,5.62-4.23c.13-.11,0-.32-.18-.27-.74.21-1.95.57-3.23,1a22.87,22.87,0,0,0-3.53,1.58,16.22,16.22,0,0,0-2.84,2.1c.55-1.24,1.08-2.5,1.68-3.72.69.22,2.74-.52,5-1.71a30.75,30.75,0,0,0,3.18-2.06c1.07-.75,2-1.48,2.63-1.93.13-.09,0-.31-.16-.27a32.28,32.28,0,0,0-6.87,2.29,16.7,16.7,0,0,0-2.95,2c.61-1.21,1.21-2.44,1.86-3.63.67.25,2.77-.4,5-1.49a67.4,67.4,0,0,0,6-3.67c.14-.1,0-.32-.15-.29a30.4,30.4,0,0,0-7,1.94,15.75,15.75,0,0,0-3,1.84c.65-1.2,1.32-2.38,2-3.55.66.28,2.79-.28,5.11-1.24,2-.86,4.88-2.58,6.12-3.28.14-.08,0-.3-.13-.29-.75.07-2,.22-3.31.47a20.25,20.25,0,0,0-3.71,1,15.2,15.2,0,0,0-3.11,1.68c.7-1.17,1.44-2.31,2.18-3.45.66.33,2.79-.13,5.16-.92,1-.35,2.27-.92,3.42-1.43s2.2-1,2.82-1.25c.14-.06.06-.29-.11-.3a27.43,27.43,0,0,0-3.28.12,18.72,18.72,0,0,0-3.75.74,14.85,14.85,0,0,0-3.2,1.47c.57-.81,1.14-1.63,1.74-2.42.73-.12,2.22-1.55,3.78-3.4.34-.41.72-.89,1.09-1.42l1.16-1.6a29.54,29.54,0,0,1,2.08-2.61c.11-.13,0-.35-.19-.27a16.7,16.7,0,0,0-3,1.74,20.63,20.63,0,0,0-1.63,1.3,16.46,16.46,0,0,0-1.32,1.34,9.72,9.72,0,0,0-2.41,4.43c-.62.81-1.19,1.65-1.78,2.48a24.14,24.14,0,0,0,.4-3.48c.06-1.13,0-2.61,0-4s-.09-2.8-.1-3.65c0-.19-.26-.22-.34,0a33.82,33.82,0,0,0-1.16,3.55,19.74,19.74,0,0,0-.7,4c-.14,2.62.31,4.76.83,5.28-.73,1.12-1.46,2.24-2.15,3.39a23.59,23.59,0,0,0,.18-3.49,40,40,0,0,0-.36-4c-.18-1.4-.34-2.73-.45-3.54a.17.17,0,0,0-.33,0,31.56,31.56,0,0,0-1.21,7.55c0,2.6.58,4.71,1.15,5.21-.68,1.15-1.34,2.32-2,3.49a23.57,23.57,0,0,0,0-3.49c-.17-2.23-1-5.83-1.26-7.44a.17.17,0,0,0-.34,0,33.31,33.31,0,0,0-.75,7.53c.19,2.59.82,4.68,1.4,5.15-.63,1.17-1.22,2.38-1.82,3.57a20.87,20.87,0,0,0-.15-3.48,67.91,67.91,0,0,0-1.63-7.35.17.17,0,0,0-.33,0c-.12.81-.29,2.13-.39,3.53a23,23,0,0,0,0,4c.29,2.57,1,4.64,1.62,5.08-.58,1.2-1.11,2.43-1.65,3.66a22.07,22.07,0,0,0-.32-3.48,33.65,33.65,0,0,0-.93-3.89c-.38-1.34-.78-2.61-1-3.38a.17.17,0,0,0-.33,0,35,35,0,0,0,0,7.56c.4,2.57,1.26,4.6,1.87,5-.49,1.25-1,2.49-1.42,3.76a25.37,25.37,0,0,0-.53-3.46,39.28,39.28,0,0,0-1.14-3.84c-.44-1.33-.89-2.59-1.17-3.36a.17.17,0,0,0-.33.05,32.63,32.63,0,0,0,.34,7.61c.56,2.56,1.53,4.52,2.18,4.88-.42,1.27-.8,2.56-1.15,3.86a27.34,27.34,0,0,0-.78-3.43c-.63-2.15-2.13-5.56-2.74-7.08a.17.17,0,0,0-.32.07,30.44,30.44,0,0,0,.79,7.65C493.07,428.67,494.21,430.56,494.89,430.85Z" style="fill:#92E3A9"></path><path d="M30.08,403.41a17,17,0,0,0,1.72-.31c1.21-.26,2.37-.5,3.35-.79a5.56,5.56,0,0,0,2-.85c.51.41,1.05.8,1.53,1.23L40.15,404a10.88,10.88,0,0,0-1.6-.3,9.23,9.23,0,0,0-1.92-.07,14.59,14.59,0,0,0-4,.8c-.67.23-1.29.47-1.84.71s-1,.5-1.37.69c-.16.09-.21.36-.06.35.64-.06,1.69-.05,2.9-.06.61,0,1.22,0,1.85,0h1.78c1.23,0,2.48-.14,3.46-.24a5.41,5.41,0,0,0,2.12-.53c.93.92,1.76,1.94,2.6,3a12.29,12.29,0,0,0-3.44-.87,16.21,16.21,0,0,0-4,.18,25.17,25.17,0,0,0-3.44.82c-.18.06-.26.32-.11.34l2.94.47c1.17.25,2.56.45,3.63.61a30.27,30.27,0,0,0,3.49.24,5.23,5.23,0,0,0,2.18-.25l1.17,1.58,1.09,1.64a12.61,12.61,0,0,0-3.34-1.24,16.64,16.64,0,0,0-4.09-.38,33.86,33.86,0,0,0-3.55.29c-.19,0-.3.28-.16.33.63.21,1.7.56,2.92.92A31.62,31.62,0,0,0,43,414.16a28.09,28.09,0,0,0,3.45.65,5.16,5.16,0,0,0,2.2-.05l1,1.7.91,1.75a12.45,12.45,0,0,0-3.19-1.58,17.23,17.23,0,0,0-4-.79,29.66,29.66,0,0,0-3.62-.15c-.19,0-.33.25-.18.31.66.28,1.66.8,2.85,1.31a37.73,37.73,0,0,0,3.48,1.46,28.35,28.35,0,0,0,3.36,1,5.19,5.19,0,0,0,2.19.19c.57,1.19,1,2.41,1.52,3.63a13,13,0,0,0-3-1.92A17.42,17.42,0,0,0,46,420.46a30.87,30.87,0,0,0-3.58-.5c-.18,0-.35.21-.21.29.62.34,1.56.94,2.69,1.57s2.29,1.33,3.27,1.82c2.31,1.07,4.48,1.94,5.39,1.79l.57,1.89.48,1.9A12.41,12.41,0,0,0,51.88,427a17.71,17.71,0,0,0-3.73-1.64,32.28,32.28,0,0,0-3.49-.87c-.18,0-.37.17-.25.26.52.41,1.5,1.08,2.47,1.83s2.08,1.56,3,2.15c2.14,1.33,4.21,2.46,5.09,2.45a28,28,0,0,1,.45,3.75h.77a29.56,29.56,0,0,0-.46-3.88c.83-.24,2.4-2.14,3.47-4.88a18.75,18.75,0,0,0,1-4.31,31.71,31.71,0,0,0,.24-3.93c0-.21-.29-.25-.38-.05l-1.67,3.66c-.69,1.44-1.36,2.9-1.83,4a31.63,31.63,0,0,0-1.19,3.6c-.15-.66-.33-1.32-.5-2l-.59-1.95a4.26,4.26,0,0,0,1.42-1.69A14.6,14.6,0,0,0,57.1,420a19.19,19.19,0,0,0,.49-4.37,34.94,34.94,0,0,0-.2-3.89c0-.2-.32-.2-.39,0-.26.87-.76,2.32-1.26,3.8s-1.05,3-1.33,4.2a26.75,26.75,0,0,0-.75,3.72c-.49-1.27-1-2.54-1.58-3.77a4.26,4.26,0,0,0,1.24-1.85,16.58,16.58,0,0,0,1-3.68,21,21,0,0,0,0-4.36c-.17-1.5-.39-3-.59-3.83,0-.19-.34-.16-.39,0-.17.88-.53,2.38-.87,3.9s-.71,3.11-.89,4.31a30.11,30.11,0,0,0-.32,3.77l-.95-1.81-1-1.76a4.23,4.23,0,0,0,1-2,17.26,17.26,0,0,0,.59-3.75,22.34,22.34,0,0,0-.4-4.33c-.35-1.5-.77-2.94-1-3.82-.06-.2-.38-.14-.39.07-.09.93-.24,2.44-.41,4s-.41,3.18-.44,4.38a28.09,28.09,0,0,0,.06,3.78l-1.12-1.7-1.22-1.64a4.4,4.4,0,0,0,.84-2.07,16.2,16.2,0,0,0,.16-3.81,18.07,18.07,0,0,0-1-4.34,38.25,38.25,0,0,0-1.61-3.71.21.21,0,0,0-.38.13c.08.94.13,2.51.2,4.08s0,3.26.14,4.45a29.77,29.77,0,0,0,.48,3.77c-.87-1-1.72-2.1-2.7-3.06a4.18,4.18,0,0,0,.56-2.17,14.36,14.36,0,0,0-.36-3.82,11,11,0,0,0-.65-2,21.32,21.32,0,0,0-1-2.17,25.52,25.52,0,0,0-2.26-3.45.21.21,0,0,0-.36.18c.12.46.27,1.07.44,1.76s.31,1.49.47,2.27c.33,1.56.55,3.22.84,4.41.18.73.35,1.42.51,2a16,16,0,0,0,.5,1.62l-1.51-1.38c-.51-.46-1.06-.85-1.59-1.28a4.12,4.12,0,0,0,.22-2.23,13.85,13.85,0,0,0-1-3.74,15.54,15.54,0,0,0-1-1.92,23.22,23.22,0,0,0-1.42-2,24.87,24.87,0,0,0-2.95-3,.2.2,0,0,0-.32.24c.21.45.5,1,.8,1.67s.58,1.4.9,2.16c.58,1.49,1.17,3.05,1.63,4.22.29.71.57,1.36.85,1.93a15.25,15.25,0,0,0,.74,1.55l-1.24-.84-1.29-.77a1.84,1.84,0,0,0-.38-.71,5.51,5.51,0,0,0-.88-.82,10.62,10.62,0,0,0-3-1.59,12.74,12.74,0,0,0-3.93-.63,14.43,14.43,0,0,0-3.43.33c-.17.05-.15.35,0,.4a29.4,29.4,0,0,1,3,1.13c1.18.49,2.38,1.09,3.35,1.43a12.44,12.44,0,0,0,4.71,1.06l1.28.76c.42.26.83.56,1.24.83a11.67,11.67,0,0,0-1.61-.06,14.89,14.89,0,0,0-1.9.26,9.64,9.64,0,0,0-1.82.57,14.31,14.31,0,0,0-1.89.92c-.61.35-1.17.71-1.65,1.05s-.88.69-1.18.94c-.13.12-.13.39,0,.36.59-.18,1.59-.4,2.74-.63Z" style="fill:#92E3A9"></path><path d="M58.11,410.15c1.89,3.93,3.91,6.71,4.8,6.92.16,2.5.34,5,.55,7.51A51.63,51.63,0,0,0,61,419.06a110.77,110.77,0,0,0-6.48-10.14c-.16-.23-.41,0-.32.34a83.58,83.58,0,0,0,4.59,12.28c2,3.86,4.12,6.57,5,6.75.22,2.2.45,4.4.73,6.59h.77c-.28-2.21-.52-4.43-.74-6.66.85-.25,2.41-3.33,3.86-7.41,1.22-3.51,2.58-9.59,3.19-12.23.07-.31-.2-.54-.35-.3a64.13,64.13,0,0,0-5.38,10.44,38.43,38.43,0,0,0-1.64,6c-.22-2.55-.4-5.1-.57-7.65.85-.23,2.52-3.26,4.1-7.28,1.34-3.48,2.88-9.5,3.59-12.12.08-.3-.18-.54-.34-.31a63.71,63.71,0,0,0-5.72,10.25,38.45,38.45,0,0,0-1.83,5.9c-.13-2.55-.24-5.11-.32-7.66.86-.2,2.62-3.18,4.33-7.14.73-1.71,1.54-4.06,2.25-6.3s1.48-4.09,1.88-5.29c.1-.27-.15-.51-.32-.31-.72.88-1.89,2.38-3.1,4.12-.3.44-.61.89-.9,1.35s-.56.95-.82,1.43c-.52.95-1,1.89-1.38,2.74a38.77,38.77,0,0,0-2,5.84c0-2.56-.08-5.12-.05-7.68.43-.08,1.11-.85,1.91-2.09a47.71,47.71,0,0,0,2.77-4.71c.21-.39.42-.83.63-1.29l.73-1.43c.5-1,1-2,1.45-3.06s1-2,1.39-2.86l1.09-2.2c.12-.26-.09-.53-.28-.35-.83.8-2.19,2.17-3.61,3.76a39,39,0,0,0-3.62,5.06,12.41,12.41,0,0,0-.77,1.49c-.23.49-.44,1-.64,1.46-.4.95-.73,1.86-1,2.67.14-2.55.17-5.1.52-7.63.9-.08,3-2.78,5.4-6.22,2-3,5.06-8.11,6.45-10.27.16-.25,0-.55-.24-.38-.91.72-2.41,1.94-4,3.38A41,41,0,0,0,67,374.55,38.2,38.2,0,0,0,64,379.86l.65-3.77L65,374.2l.43-1.86c.44,0,1.28-.6,2.33-1.61s2.35-2.4,3.72-4c1.13-1.39,2.65-3.3,4-5.11l3.47-4.53c.19-.23,0-.54-.19-.4-1,.62-2.59,1.72-4.3,3a38.15,38.15,0,0,0-4.63,4.21,36.5,36.5,0,0,0-3.59,5l1-3.69.53-1.83.61-1.82c.88.11,3.52-2.08,6.57-5,2.63-2.55,6.52-7.07,8.36-8.91.21-.21.08-.54-.15-.42-1,.54-2.79,1.45-4.56,2.6-.89.58-1.83,1.19-2.68,1.83s-1.64,1.31-2.32,1.94A28,28,0,0,0,71.31,356c-.67.78-1.28,1.54-1.78,2.23.69-1.74,1.31-3.51,2.06-5.22a9.76,9.76,0,0,0,2-2.8c.89-1.42,1.82-3.31,2.88-5.34.45-.91.93-2,1.44-3.08.25-.56.51-1.13.76-1.71l.78-1.71c1-2.26,2-4.38,2.66-5.65.15-.29-.1-.47-.32-.22a56.16,56.16,0,0,0-4,4.93L76.71,339l-1,1.6a32.75,32.75,0,0,0-1.72,3,40,40,0,0,0-2.24,5.35,13.58,13.58,0,0,0-.73,3.51l-.56,1.31-.52,1.34-1,2.67C69,356.93,69,356,69,355s0-2.13,0-3.27c0-1,0-2-.13-3.17s-.15-2.29-.22-3.41c-.19-2.28-.31-4.39-.41-5.69,0-.29-.38-.18-.46.15-.16.72-.39,1.68-.64,2.76s-.43,2.32-.63,3.56-.34,2.54-.46,3.75A26.42,26.42,0,0,0,66,353c.07,4.44.93,7.81,1.68,8.33l-.6,1.79c-.19.6-.35,1.21-.53,1.81l-1,3.63a53.7,53.7,0,0,0-.39-6.08c-.14-1.89-.59-4.28-1-6.52s-.73-4.35-.94-5.63c0-.29-.39-.14-.44.19-.19,1.49-.53,3.89-.68,6.42a42.65,42.65,0,0,0,.08,7.13,26.07,26.07,0,0,0,1.12,5.56,5.46,5.46,0,0,0,1.35,2.58L64.23,374l-.32,1.86-.65,3.72a50.38,50.38,0,0,0-1-6c-.34-1.87-1-4.2-1.61-6.41s-1.11-4.26-1.45-5.52c-.08-.29-.4-.11-.42.23-.18,3-.21,9.76.73,13.59.91,4.37,2.53,7.49,3.35,7.84-.35,2.5-.39,5-.52,7.53-.18-.81-.43-1.73-.73-2.72-.15-.49-.31-1-.48-1.53s-.36-1.07-.51-1.61c-.55-1.82-1.48-4.08-2.32-6.22s-1.55-4.13-2-5.36c-.11-.28-.41-.07-.39.28.06.75.13,1.74.21,2.86s.18,2.35.41,3.63.44,2.56.69,3.76c.13.6.25,1.17.39,1.72s.34,1.06.5,1.52a33,33,0,0,0,2.3,5.21c.78,1.27,1.45,2.06,1.89,2.19,0,2.51,0,5,0,7.53a51.28,51.28,0,0,0-2.1-5.67c-.38-.87-.85-1.83-1.36-2.81l-.8-1.48-.78-1.54-2.67-5.12c-.14-.27-.42,0-.35.32.28,1.5.76,3.95,1.35,6.41a55.74,55.74,0,0,0,2.24,6.55c1.75,4,3.68,6.84,4.56,7.07.08,2.51.19,5,.31,7.53a48.61,48.61,0,0,0-2.29-5.6,114.41,114.41,0,0,0-6.14-10.36c-.16-.24-.41,0-.33.34A82.5,82.5,0,0,0,58.11,410.15Z" style="fill:#92E3A9"></path><path d="M70.62,430.05a41.58,41.58,0,0,0-.87,4.76s0,.05,0,.07h.76a43.78,43.78,0,0,1,.84-4.66c.86.08,3.1-1.29,5.45-3.1,2-1.59,4.79-4.45,6-5.66.14-.14,0-.37-.25-.3a34.65,34.65,0,0,0-7.67,3.92,17.1,17.1,0,0,0-3,2.94c.43-1.57.88-3.13,1.4-4.68.85.16,3.19-1,5.69-2.69a77.29,77.29,0,0,0,6.44-5.35c.15-.13,0-.38-.23-.31-.87.28-2.3.77-3.8,1.38a27.71,27.71,0,0,0-4.12,2.1,17.88,17.88,0,0,0-3.24,2.72c.53-1.54,1.13-3.06,1.73-4.57.85.22,3.25-.81,5.86-2.34a70.24,70.24,0,0,0,6.75-5.08c.15-.13,0-.38-.21-.32-.89.25-2.34.68-3.88,1.23A27.6,27.6,0,0,0,80.06,412a19.58,19.58,0,0,0-3.41,2.53c.66-1.49,1.3-3,2-4.46.82.26,3.29-.63,6-2.06a36.9,36.9,0,0,0,3.82-2.47c1.28-.9,2.45-1.78,3.16-2.31.16-.12,0-.38-.2-.33a38.57,38.57,0,0,0-8.24,2.75A19.68,19.68,0,0,0,79.64,408c.74-1.46,1.46-2.93,2.23-4.37.81.3,3.32-.48,6.06-1.79a79.54,79.54,0,0,0,7.17-4.4c.17-.11,0-.38-.18-.35a36.68,36.68,0,0,0-8.35,2.33,18.51,18.51,0,0,0-3.63,2.21c.79-1.44,1.58-2.86,2.41-4.27.79.34,3.35-.32,6.14-1.48,2.4-1,5.86-3.1,7.35-3.94.17-.09,0-.36-.16-.34-.91.08-2.39.26-4,.56a24,24,0,0,0-4.45,1.24,17.66,17.66,0,0,0-3.73,2c.84-1.4,1.73-2.77,2.62-4.14.78.4,3.35-.15,6.19-1.11,1.23-.41,2.72-1.1,4.1-1.71s2.64-1.17,3.39-1.5c.17-.07.07-.35-.13-.36a31.15,31.15,0,0,0-3.94.15,21.88,21.88,0,0,0-4.5.88,18.05,18.05,0,0,0-3.84,1.77c.68-1,1.36-2,2.08-2.91.89-.14,2.67-1.86,4.54-4.08.41-.49.87-1.07,1.31-1.71l1.4-1.92a37.47,37.47,0,0,1,2.49-3.13.21.21,0,0,0-.23-.33,20.29,20.29,0,0,0-3.6,2.1c-.68.48-1.33,1-2,1.55a19.62,19.62,0,0,0-1.58,1.61c-1.82,2.16-2.86,4.33-2.9,5.32-.74,1-1.43,2-2.14,3a29.38,29.38,0,0,0,.49-4.18c.06-1.36,0-3.14-.06-4.85s-.11-3.36-.11-4.38c0-.23-.32-.26-.41,0a39.44,39.44,0,0,0-1.39,4.25,24.22,24.22,0,0,0-.85,4.84c-.16,3.14.37,5.72,1,6.34-.88,1.35-1.75,2.69-2.58,4.07a29.92,29.92,0,0,0,.21-4.19c0-1.36-.2-3.1-.42-4.8s-.42-3.28-.54-4.26a.21.21,0,0,0-.41,0,38,38,0,0,0-1.44,9.06c.06,3.13.69,5.66,1.37,6.25-.82,1.38-1.6,2.79-2.37,4.19a26.31,26.31,0,0,0,0-4.18c-.19-2.69-1.15-7-1.51-8.93a.2.2,0,0,0-.4,0,39.1,39.1,0,0,0-.9,9.05c.22,3.11,1,5.61,1.68,6.17-.76,1.41-1.47,2.86-2.19,4.29a25.31,25.31,0,0,0-.18-4.18,81.64,81.64,0,0,0-1.95-8.82.2.2,0,0,0-.4,0c-.14,1-.34,2.56-.47,4.24a28.33,28.33,0,0,0,0,4.81c.35,3.08,1.22,5.56,1.94,6.09-.7,1.44-1.33,2.92-2,4.39a27.07,27.07,0,0,0-.38-4.18,44.17,44.17,0,0,0-1.12-4.66c-.45-1.61-.93-3.13-1.23-4.06a.2.2,0,0,0-.39,0,41.86,41.86,0,0,0-.05,9.07c.49,3.08,1.51,5.52,2.25,6-.59,1.49-1.18,3-1.71,4.51a30.91,30.91,0,0,0-.63-4.16c-.3-1.33-.82-3-1.37-4.61S70.29,409,70,408a.21.21,0,0,0-.4.06,38.92,38.92,0,0,0,.41,9.14c.66,3.07,1.83,5.42,2.61,5.86-.51,1.52-1,3.07-1.38,4.62a30.63,30.63,0,0,0-.94-4.11c-.76-2.59-2.55-6.68-3.28-8.5a.2.2,0,0,0-.39.09,36.66,36.66,0,0,0,1,9.18C68.43,427.43,69.79,429.69,70.62,430.05Z" style="fill:#92E3A9"></path></g><g id="freepik--Floor--inject-233"><line x1="681.52" y1="435.05" x2="23.49" y2="435.05" style="fill:none;stroke:#263238;stroke-miterlimit:10;stroke-width:2px"></line></g><g id="freepik--Caravan--inject-233"><polygon points="230.96 401 583.74 401 583.74 363.21 230.77 363.21 230.96 401" style="fill:#263238;stroke:#263238;stroke-miterlimit:10"></polygon><circle cx="586.24" cy="406.11" r="28.94" style="fill:#263238;stroke:#263238;stroke-miterlimit:10"></circle><circle cx="313.17" cy="406.11" r="28.94" style="fill:#263238;stroke:#263238;stroke-miterlimit:10"></circle><circle cx="535.14" cy="406.11" r="28.94" style="fill:#263238;stroke:#263238;stroke-miterlimit:10"></circle><circle cx="526.76" cy="406.11" r="28.94" style="fill:#263238"></circle><circle cx="526.76" cy="406.11" r="17.03" transform="translate(-56.78 86.93) rotate(-8.95)" style="fill:#fff;stroke:#263238;stroke-miterlimit:10"></circle><polygon points="500.96 184.06 495.76 184.06 489.44 184.06 464.84 184.06 469.76 194.11 489.24 194.11 508.5 194.11 500.96 184.06" style="fill:#c4c4c4;stroke:#263238;stroke-miterlimit:10"></polygon><polygon points="453.31 191.08 453.31 184.06 464.84 184.06 472.38 194.11 453.12 194.11 453.31 191.08" style="fill:#fff;stroke:#263238;stroke-miterlimit:10"></polygon><ellipse cx="323.94" cy="178.19" rx="11.9" ry="28.48" transform="translate(-37.7 101.35) rotate(-16.82)" style="fill:#fff;stroke:#263238;stroke-miterlimit:10"></ellipse><path d="M335.34,174.75c-3.81-12.6-10.59-22.1-16.39-23.75-6.15,2.1-7.05,17.24-2,34a71.7,71.7,0,0,0,8.27,18.36c2.42,1.89,4.82,2.7,6.93,2.06C338.48,203.56,339.89,189.81,335.34,174.75Z" style="fill:#bfbfbf;stroke:#263238;stroke-miterlimit:10"></path><path d="M171.76,215.18v-4.07a13.81,13.81,0,0,1,4-9.75h0a13.83,13.83,0,0,1,9.75-4H423.42" style="fill:none;stroke:#263238;stroke-miterlimit:10;stroke-width:2px"></path><line x1="206.61" y1="199.02" x2="206.61" y2="214.33" style="fill:none;stroke:#263238;stroke-miterlimit:10;stroke-width:2px"></line><line x1="275.48" y1="199.02" x2="275.48" y2="214.33" style="fill:none;stroke:#263238;stroke-miterlimit:10;stroke-width:2px"></line><line x1="344.35" y1="199.02" x2="344.35" y2="214.33" style="fill:none;stroke:#263238;stroke-miterlimit:10;stroke-width:2px"></line><path d="M606,206.77a104.66,104.66,0,0,0-38.72-13.68,245.2,245.2,0,0,0-48.12-2H453.31v11.4a198.25,198.25,0,0,1-32.65,2.72H255.53V371.27a35,35,0,0,1,12-2.15c18,0,33,13.66,36.62,31.88H481.6V372.65a13.52,13.52,0,0,1,13.52-13.52h20V269.05h68.62c11.87,0,54-5.41,54-22.9S621,215.65,606,206.77Z" style="fill:#fff;stroke:#263238;stroke-miterlimit:10"></path><path d="M483,278.61h32.13v-9.56h68.62c11.87,0,54-5.41,54-22.9S621,215.65,606,206.77a105.83,105.83,0,0,0-23.37-10.29H483Z" style="fill:#c4c4c4;stroke:#263238;stroke-miterlimit:10"></path><path d="M440.55,304.68c3.35.84,64.5,5,69.52,5,.5,0,2.29,0,5.1-.12V269.05h68.62c11.87,0,54-5.41,54-22.9,0-.32,0-.63,0-.94H535.2Z" style="fill:#263238;stroke:#263238;stroke-miterlimit:10"></path><path d="M521.42,206.76A107.09,107.09,0,0,0,481,192.86a244.57,244.57,0,0,0-95.21,6,194.25,194.25,0,0,1-49.76,6.35H181.67A10.74,10.74,0,0,0,170.93,216V386.36A14.64,14.64,0,0,0,185.57,401H231c3.64-18.22,18.65-31.88,36.62-31.88s33,13.66,36.62,31.88H430.57V269.05h68.62c11.87,0,54-5.41,54-22.9S536.4,215.64,521.42,206.76Z" style="fill:#fff;stroke:#263238;stroke-miterlimit:10"></path><path d="M337,374.2H285.75A40.33,40.33,0,0,1,304.2,401H337Z" style="fill:#7d7d7d;stroke:#263238;stroke-miterlimit:10"></path><path d="M185.57,401H231a40.34,40.34,0,0,1,18.46-26.8H170.93v12.16A14.64,14.64,0,0,0,185.57,401Z" style="fill:#7d7d7d;stroke:#263238;stroke-miterlimit:10"></path><path d="M461.07,251.91H416.22c-3.21,0-5.82-2.25-5.82-5V218.4c0-3.7,3.47-6.7,7.76-6.7h38c5,0,9.23,3.06,10.15,7.27l4.87,22.39C472.41,246.84,467.53,251.91,461.07,251.91Z" style="fill:#7d7d7d;stroke:#263238;stroke-miterlimit:10"></path><path d="M632.45,349.42l-47.8-25.89-36.6-54.48H464.62V401h17V372.65a13.52,13.52,0,0,1,13.52-13.52h59.21a13.52,13.52,0,0,1,13.17,10.44L574.84,401h60.94a5.92,5.92,0,0,0,5.91-5.91V365.84A19.22,19.22,0,0,0,632.45,349.42Z" style="fill:#7d7d7d;stroke:#263238;stroke-miterlimit:10"></path><path d="M571.71,387.58,574.84,401h60.94a5.92,5.92,0,0,0,5.91-5.91V365.84c0-.57-.06-1.13-.11-1.69h-64.5Z" style="fill:#263238;stroke:#263238;stroke-miterlimit:10"></path><polygon points="488.3 274.53 524.21 323.53 584.65 323.53 551.73 274.53 488.3 274.53" style="fill:#263238;stroke:#263238;stroke-miterlimit:10"></polygon><path d="M574.75,352.48h13.31a9.06,9.06,0,0,1,8.91,6.81l3,10.21H569.33v-3.66A19.18,19.18,0,0,1,574.75,352.48Z" style="fill:#fff;stroke:#263238;stroke-miterlimit:10"></path><path d="M641.69,365.84a19.16,19.16,0,0,0-3.4-10.85,10.1,10.1,0,0,0-2.55,4.3l-3,10.21h9Z" style="fill:#fff;stroke:#263238;stroke-miterlimit:10"></path><path d="M572,349.42l-47.8-25.89L487.6,269.05h-57V401H495V385.61a16.06,16.06,0,0,1,16.06-16.06h27.68a16.13,16.13,0,0,1,12.78,6.29C557,383,559,392,560.42,401h20.83V365.84A19.22,19.22,0,0,0,572,349.42Z" style="fill:#fff;stroke:#263238;stroke-miterlimit:10"></path><rect x="430.57" y="339.71" width="13.62" height="19.58" rx="1.52" style="fill:#263238;stroke:#263238;stroke-miterlimit:10"></rect><path d="M538.74,369.55a16.13,16.13,0,0,1,12.78,6.29C557,383,559,392,560.42,401h20.83V369.55Z" style="fill:#263238;stroke:#263238;stroke-miterlimit:10"></path><path d="M575.83,352.48H571a6.8,6.8,0,0,0-6.81,6.81V369.5h17v-3.66A19.18,19.18,0,0,0,575.83,352.48Z" style="fill:#fff;stroke:#263238;stroke-miterlimit:10"></path><path d="M431.42,395H489V381.42a17,17,0,0,1,17-17h10.49V336.22a41.74,41.74,0,0,0-3.93-17.69l-2-4.36L490.4,280.76a15.41,15.41,0,0,0-13.2-7.45H430.57" style="fill:none;stroke:#263238;stroke-miterlimit:10"></path><path d="M480.79,281a7.11,7.11,0,0,0-3.35-.84H445.89a6,6,0,0,0-6,6v36.6a6,6,0,0,0,6,6h34.9Z" style="fill:#263238;stroke:#263238;stroke-miterlimit:10"></path><path d="M495.23,301.79l-11-17.21v44.06h14.39a3.49,3.49,0,0,0,3.49-3.49A43.28,43.28,0,0,0,495.23,301.79Z" style="fill:#263238;stroke:#263238;stroke-miterlimit:10"></path><polygon points="596.97 359.29 602.11 373.28 631.58 373.28 635.75 359.29 596.97 359.29" style="fill:#263238;stroke:#263238;stroke-miterlimit:10"></polygon><path d="M343.19,240.18h38.92a5.25,5.25,0,0,1,5.25,5.25V396a0,0,0,0,1,0,0H337.94a0,0,0,0,1,0,0V245.43A5.25,5.25,0,0,1,343.19,240.18Z" style="fill:#fff;stroke:#263238;stroke-miterlimit:10"></path><path d="M388.84,240.18h38.92a5.25,5.25,0,0,1,5.25,5.25V396a0,0,0,0,1,0,0H383.59a0,0,0,0,1,0,0V245.43A5.25,5.25,0,0,1,388.84,240.18Z" style="fill:#fff;stroke:#263238;stroke-miterlimit:10"></path><rect x="342.55" y="328.13" width="40.21" height="61.25" style="fill:#263238;stroke:#263238;stroke-miterlimit:10"></rect><path d="M382.76,303.84V255.58a8.8,8.8,0,0,0-8.8-8.8H351.34a8.8,8.8,0,0,0-8.79,8.8v48.26Z" style="fill:#263238;stroke:#263238;stroke-miterlimit:10"></path><rect x="259.62" y="251.07" width="51.1" height="45.23" rx="3.5" style="fill:#263238;stroke:#263238;stroke-miterlimit:10"></rect><rect x="261.52" y="252.75" width="47.31" height="41.88" rx="3.5" style="fill:#263238;stroke:#fff;stroke-miterlimit:10"></rect><circle cx="272.68" cy="406.11" r="28.94" style="fill:#263238"></circle><circle cx="264.31" cy="406.11" r="28.94" style="fill:#263238"></circle><circle cx="264.31" cy="406.11" r="17.03" transform="translate(-209.75 305.84) rotate(-45)" style="fill:#fff;stroke:#263238;stroke-miterlimit:10"></circle><path d="M267.58,358c-23.71,0-43.38,18.62-47.16,43.05H231a42.93,42.93,0,0,1,1.86-6.53l0-.12c.38-1,.8-2,1.26-3l.08-.18a40.66,40.66,0,0,1,5.12-8.16l.16-.21c.64-.78,1.31-1.53,2-2.26l.21-.21c.71-.73,1.44-1.44,2.2-2.11l0,0c.77-.68,1.56-1.32,2.38-1.92l.15-.12c.78-.58,1.59-1.12,2.41-1.63.12-.08.24-.16.37-.23.81-.49,1.64-1,2.48-1.38l.38-.19c.88-.43,1.77-.83,2.68-1.19l.09,0c.89-.35,1.81-.66,2.74-.94l.36-.11c.91-.26,1.84-.47,2.77-.66l.52-.1c.94-.17,1.88-.31,2.83-.41l.46,0c1-.09,2-.15,3-.15s2,.06,3.05.15l.45,0c.95.1,1.9.24,2.83.41l.52.1c.94.19,1.86.4,2.77.66l.37.12c.92.27,1.84.58,2.74.93l.09,0c.91.36,1.8.76,2.68,1.19l.37.19c.85.42,1.68.89,2.49,1.38l.36.23c.83.51,1.63,1,2.42,1.63l.15.12c.81.6,1.61,1.24,2.37,1.92l0,0c.76.67,1.49,1.38,2.2,2.11l.21.21c.69.73,1.35,1.48,2,2.26l.17.21a41.08,41.08,0,0,1,5.11,8.16l.09.18c.45,1,.87,2,1.25,3l.05.12A42.91,42.91,0,0,1,304.2,401h10.54C311,376.57,291.29,358,267.58,358Z" style="fill:#fff;stroke:#263238;stroke-miterlimit:10"></path><path d="M345.2,410.22H327.34v24.83h24.13l.29-.93c2.65-8.61,11.48-14.58,21.57-14.58,10.41,0,19.44,6.36,21.78,15.34l0,.17h7V410.22Z" style="fill:#263238;stroke:#263238;stroke-miterlimit:10"></path><path d="M327.34,410.22v24.83h6.28l.28-.93c2.66-8.61,11.49-14.58,21.57-14.58,10.41,0,19.44,6.36,21.78,15.34l.05.17h7V410.22Z" style="fill:#bfbfbf;stroke:#263238;stroke-miterlimit:10"></path><rect x="384.31" y="410.22" width="17.85" height="24.83" style="fill:#bfbfbf;stroke:#263238;stroke-miterlimit:10"></rect><line x1="64.94" y1="251.77" x2="64.94" y2="434.11" style="fill:none;stroke:#263238;stroke-miterlimit:10;stroke-width:4px"></line><line x1="285.05" y1="251.77" x2="285.05" y2="434.11" style="fill:none;stroke:#263238;stroke-miterlimit:10;stroke-width:4px"></line><path d="M337.15,221.81H114.43a4.55,4.55,0,0,0-3.25,1.37l-47.41,22.7,228.44,2.47,44.94-17.42a4.56,4.56,0,0,0,0-9.12Z" style="fill:#c4c4c4;stroke:#263238;stroke-miterlimit:10"></path><rect x="60.38" y="242.65" width="231.83" height="9.12" rx="3.5" style="fill:#c4c4c4;stroke:#263238;stroke-miterlimit:10"></rect></g><g id="freepik--character-2--inject-233"><line x1="253.47" y1="406.37" x2="199.42" y2="406.37" style="fill:none;stroke:#263238;stroke-linecap:round;stroke-miterlimit:10;stroke-width:2px"></line><polyline points="229.23 380.07 227.3 392.88 229.75 434.37" style="fill:none;stroke:#263238;stroke-linecap:round;stroke-miterlimit:10;stroke-width:2px"></polyline><line x1="199.47" y1="392.35" x2="197.19" y2="434.9" style="fill:none;stroke:#263238;stroke-linecap:round;stroke-miterlimit:10;stroke-width:2px"></line><path d="M229.5,383.14h23.68a2.64,2.64,0,0,0,2.55-2.28l11-46.05a2,2,0,0,0-2-2.28H241a2.62,2.62,0,0,0-2.54,2.28l-11,46.05A2,2,0,0,0,229.5,383.14Z" style="fill:#92E3A9;stroke:#263238;stroke-linecap:round;stroke-miterlimit:10"></path><path d="M198.46,393.75h53.16a2,2,0,0,0,2-2h0a2,2,0,0,0-2-2H198.46a2,2,0,0,0-2,2h0A2,2,0,0,0,198.46,393.75Z" style="fill:#92E3A9;stroke:#263238;stroke-linecap:round;stroke-miterlimit:10"></path><rect x="190.81" y="378.27" width="37.16" height="2.51" rx="1.19" transform="translate(418.78 759.05) rotate(180)" style="fill:#92E3A9;stroke:#263238;stroke-linecap:round;stroke-miterlimit:10"></rect><path d="M213.17,378.2c-.06-2.93-1.17-4.44-2.15-5.18l-10.86,2.52a10.6,10.6,0,0,0-4.36-.62c-2.29.2-4.16.62-5.19,1.86s-1.46,4.57-1.46,4.57,2.29.42,2.91.42,2.28-2.08,2.91-2.49a13.84,13.84,0,0,1,3.53-.63S205.8,378.44,213.17,378.2Z" style="fill:#fff;stroke:#263238;stroke-linecap:round;stroke-miterlimit:10"></path><path d="M238.62,305.59s-6.38,2-7.36,5,1,2.93,1,4.89-1.63,1.63-3.58,5.54.32,3.58,1.63,7.17-2.28,3.59-3.26,7.17,2.61,5.87,5.86,7.5,13.69,6.84,18.58,4.56,6.52-2,6.85-5.22S255.71,336,256,333s3.59-3.59,3.59-7.17-2.42-7.9-2.75-11.81S251,301.35,238.62,305.59Z" style="fill:#263238"></path><path d="M229.46,340.27a6.55,6.55,0,0,0-4.31,4.93c-1,4.11-3.9,23.61-3.9,23.61l-11.91,4.31v5.54l16.22-2.05L231.51,353S233,338.63,229.46,340.27Z" style="fill:#fff;stroke:#263238;stroke-linecap:round;stroke-miterlimit:10"></path><path d="M238.76,337.41s-6,1.41-8.47,2.18-3.89,5.61-4.78,9.46-2.07,4.2-1.42,10.39c.25,2.3,0,4.37.12,4.88s-5.66,7.17-5.66,7.17-24.11,11.67-24.63,14-4,39.23-4,39.23c.69,1.16,5.64,5.28,5.21,3.95-.13-.38,2-14.5,4.4-20.79s4.61-10.33,5.64-14.05l1.28-4.62,29.12.39s10.77,1.36,10.77-6.8c0-4.39.85-.85-.12-9.33a35.74,35.74,0,0,1,.44-6.52s5.48-11.87,6.12-15.07,3.25-9.33,1.58-11-11-3.19-11-3.19Z" style="fill:#263238;stroke:#263238;stroke-linecap:round;stroke-miterlimit:10"></path><path d="M243.38,337.67l-4.62-.26s-6,1.41-8.47,2.18-3.89,5.61-4.78,9.46-2.07,4.2-1.42,10.39c.25,2.3,0,4.37.12,4.88s-5.66,7.17-5.66,7.17l-1.4.69c2.09.26,19.49,2.64,29.25,9.76.1-3.09.76-.64-.14-8.49a35.74,35.74,0,0,1,.44-6.52s5.48-11.87,6.12-15.07,3.25-9.33,1.58-11S243.38,337.67,243.38,337.67Z" style="fill:#fff;stroke:#263238;stroke-linecap:round;stroke-miterlimit:10"></path><path d="M190,424.7s-4.2,3.85-4.63,4-9.4,2.39-8.75,3,18,3.7,18,3.7l.62-6.82Z" style="fill:#fff;stroke:#263238;stroke-linecap:round;stroke-miterlimit:10"></path><path d="M241.64,375.6s-3.21-1.16-8.85-.26-26.75,7-26.77,8.33,1.45,41.58,1.45,41.58l4.95,4.47s2.49-16.52,4.44-25S220,390.2,220,390.2s18.46,1,22.57-1,4.36-6,3.84-9.11-1.66-3.72-1.66-3.72" style="fill:#263238;stroke:#263238;stroke-linecap:round;stroke-miterlimit:10"></path><path d="M207.47,425.25s-4.22,3.81-4.65,4-9.42,2.31-8.77,3S212,436.05,212,436.05l.67-6.81Z" style="fill:#fff;stroke:#263238;stroke-linecap:round;stroke-miterlimit:10"></path><path d="M238,330.91s-.27,3.22-.67,5.23-.67,8.86-.13,9.39,3.35-.94,5.5-4.15a16.26,16.26,0,0,0,2.55-5.77l1.34-5S240.67,332.25,238,330.91Z" style="fill:#fff;stroke:#263238;stroke-linecap:round;stroke-miterlimit:10"></path><path d="M246.11,332.47l-.93-.27c-1.83.39-5.54,1-7.52,0,0,0-.16,1.93-.42,3.73a7.45,7.45,0,0,0,3.08-.38,17.85,17.85,0,0,0,5.72-2.83Z" style="fill:#263238;stroke:#263238;stroke-linecap:round;stroke-miterlimit:10"></path><path d="M234.72,313.51s-2.37,11.17-1.49,14.53,2.18,7.92,6.56,7.92,8.54-3.58,9.41-6.06,2.33-12.59,2.33-12.59S240.28,318.77,234.72,313.51Z" style="fill:#fff;stroke:#263238;stroke-linecap:round;stroke-miterlimit:10"></path><path d="M238.42,321.54a4.52,4.52,0,0,1-.38,2c-.44.82-1.82,1.94-1.51,2.38a2.09,2.09,0,0,0,2.14,1.13" style="fill:none;stroke:#263238;stroke-linecap:round;stroke-miterlimit:10"></path><path d="M236.16,328.44a6.35,6.35,0,0,0,4.77.69" style="fill:none;stroke:#263238;stroke-linecap:round;stroke-miterlimit:10"></path><path d="M234.84,318.15a2.52,2.52,0,0,1,3,.82" style="fill:none;stroke:#263238;stroke-linecap:round;stroke-miterlimit:10"></path><path d="M241.87,320.35a4.28,4.28,0,0,1,4.95.94" style="fill:none;stroke:#263238;stroke-linecap:round;stroke-miterlimit:10"></path><line x1="222.63" y1="380.68" x2="218.22" y2="434.08" style="fill:none;stroke:#263238;stroke-linecap:round;stroke-miterlimit:10;stroke-width:2px"></line><line x1="255.88" y1="434.08" x2="252.24" y2="380.45" style="fill:none;stroke:#263238;stroke-linecap:round;stroke-miterlimit:10;stroke-width:2px"></line><rect x="217.91" y="378.27" width="37.16" height="2.51" rx="1.19" transform="translate(472.97 759.05) rotate(180)" style="fill:#92E3A9;stroke:#263238;stroke-linecap:round;stroke-miterlimit:10"></rect><path d="M240.65,315.55s.63,5.44,4.29,7.71,4.3,2.15,4.3,3.67-.12,4.8-.12,4.8,3-2,4.17-8.34,2-10.87-3.67-10.87" style="fill:#263238"></path><path d="M236.35,321.62c0,.56-.26,1-.57,1s-.57-.45-.57-1,.26-1,.57-1S236.35,321.06,236.35,321.62Z" style="fill:#263238"></path><path d="M242.61,323c0,.56-.26,1-.57,1s-.57-.45-.57-1,.25-1,.57-1S242.61,322.45,242.61,323Z" style="fill:#263238"></path><path d="M249.09,338.83s7.78,1.66,8.2,4.15-4.21,34.43-5.24,34.63-29.7,1-29.7,1a13.78,13.78,0,0,0-3.52.63c-.63.41-2.29,2.49-2.91,2.49s-2.91-.42-2.91-.42.42-3.32,1.45-4.57,2.91-1.66,5.2-1.86a10.6,10.6,0,0,1,4.36.62l21-4.89s2.87-21.15,2.87-20.32" style="fill:#fff;stroke:#263238;stroke-linecap:round;stroke-miterlimit:10"></path><path d="M237,378.2c-.06-2.93-1.17-4.44-2.15-5.18L224,375.54a10.6,10.6,0,0,0-4.36-.62c-2.29.2-4.16.62-5.2,1.86s-1.45,4.57-1.45,4.57,2.29.42,2.91.42,2.28-2.08,2.91-2.49a13.78,13.78,0,0,1,3.52-.63S229.66,378.44,237,378.2Z" style="fill:#fff;stroke:#263238;stroke-linecap:round;stroke-miterlimit:10"></path></g><g id="freepik--character-1--inject-233"><line x1="86.75" y1="406.37" x2="140.8" y2="406.37" style="fill:none;stroke:#263238;stroke-linecap:round;stroke-miterlimit:10;stroke-width:2px"></line><polyline points="111 380.07 112.93 392.88 110.47 434.37" style="fill:none;stroke:#263238;stroke-linecap:round;stroke-miterlimit:10;stroke-width:2px"></polyline><line x1="140.76" y1="392.35" x2="143.04" y2="434.9" style="fill:none;stroke:#263238;stroke-linecap:round;stroke-miterlimit:10;stroke-width:2px"></line><path d="M110.73,383.14H87a2.62,2.62,0,0,1-2.54-2.28l-11-46.05a2,2,0,0,1,2-2.28H99.19a2.63,2.63,0,0,1,2.54,2.28l11,46.05A2,2,0,0,1,110.73,383.14Z" style="fill:#92E3A9;stroke:#263238;stroke-linecap:round;stroke-miterlimit:10"></path><path d="M141.76,393.75H88.6a2,2,0,0,1-2-2h0a2,2,0,0,1,2-2h53.16a2,2,0,0,1,2,2h0A2,2,0,0,1,141.76,393.75Z" style="fill:#92E3A9;stroke:#263238;stroke-linecap:round;stroke-miterlimit:10"></path><path d="M112.5,338.36s1.75-.25,4.5,4.76,8.5,21,8.5,21l8.94,1.3-4.56,2.88L117,370.37l-7.25-30" style="fill:#fff;stroke:#263238;stroke-linecap:round;stroke-miterlimit:10"></path><path d="M122.55,356.18A139.1,139.1,0,0,0,117,343.12c-2.75-5-6.38-5.68-6.38-5.68l-.87,2.92,4.34,18Z" style="fill:#263238;stroke:#263238;stroke-linecap:round;stroke-miterlimit:10"></path><path d="M94.87,335.85l-10.79,5.92s3.16,24,4.08,30S90,382.3,92.64,383.23s24.08-4.08,25.53-4.61.92-5.13.26-7.5-4.21-27.9-4.34-30-1.85-3.16-4.61-4.22-9.61-1.44-11.71-1.44A7.33,7.33,0,0,0,94.87,335.85Z" style="fill:#263238;stroke:#263238;stroke-linecap:round;stroke-miterlimit:10"></path><path d="M94.87,335.85l-3.06,1.68,11.75,14.9,4.58-15.92a58.16,58.16,0,0,0-10.37-1.05A7.33,7.33,0,0,0,94.87,335.85Z" style="fill:#fff;stroke:#263238;stroke-linecap:round;stroke-miterlimit:10"></path><polygon points="93.03 331.11 93.95 336.9 102.64 348.75 105.4 336.38 105.4 330.46 93.03 331.11" style="fill:#fff;stroke:#263238;stroke-linecap:round;stroke-miterlimit:10"></polygon><path d="M90.16,310.65A9.44,9.44,0,0,0,88,316.21c-.18,3.44,1.81,9.58,2.35,12.29s2.44,5.25,8.76,6.15,8.59-5.06,8.59-7.59a65.63,65.63,0,0,0-2.35-13.38c-1.08-3.25-2.71-5.6-6.51-6A9.94,9.94,0,0,0,90.16,310.65Z" style="fill:#fff;stroke:#263238;stroke-linecap:round;stroke-miterlimit:10"></path><path d="M103.08,327.11a7.66,7.66,0,0,1-5.85-.21" style="fill:none;stroke:#263238;stroke-linecap:round;stroke-miterlimit:10"></path><path d="M88.59,322l2-.56s-1-2.29-.63-3.13,1.67-1.46,1.88-2.29a13.53,13.53,0,0,0-.42-3.55,30,30,0,0,0,8.77.21c4.59-.63,5.21-1.25,5.42-5s-3.34-6.47-5.63-4.8a29.44,29.44,0,0,0-3.13,2.5s-10.65.21-11.06,4.8S88.59,322,88.59,322Z" style="fill:#263238;stroke:#263238;stroke-linecap:round;stroke-miterlimit:10"></path><line x1="94.3" y1="319.76" x2="97.73" y2="319.33" style="fill:none;stroke:#263238;stroke-linecap:round;stroke-miterlimit:10"></line><line x1="102.66" y1="319.33" x2="105.01" y2="319.33" style="fill:none;stroke:#263238;stroke-linecap:round;stroke-miterlimit:10"></line><path d="M99,317.62a4.37,4.37,0,0,0-5.79.85" style="fill:none;stroke:#263238;stroke-linecap:round;stroke-miterlimit:10"></path><path d="M98.46,323.09c2,2.76,3.55.52,3.55.52l-.65-4.87s.65-2.84,3.87-1.12" style="fill:none;stroke:#263238;stroke-linecap:round;stroke-miterlimit:10"></path><path d="M88.59,322s-2.1-1.57-2.24,1.45a4.24,4.24,0,0,0,3,4.34c.66.14.79-.79.79-.79Z" style="fill:#fff;stroke:#263238;stroke-linecap:round;stroke-miterlimit:10"></path><path d="M89.61,379.28s2.1,8.42,5.13,11.05,8.29,2.24,13.29,2.24,15.93-2.9,16.32-2.9S143,394.28,143,394.28l-5.66,35,8.16,1.58S157,396.65,157,395.73s2.63-4.61-1.85-10.27-26.45-7.37-31.32-8.55S89.61,379.28,89.61,379.28Z" style="fill:#fff;stroke:#263238;stroke-linecap:round;stroke-miterlimit:10"></path><path d="M134.05,382.4l-6.67,7.91-3-.64-3.82.92s-.18-1.51,2.45-4.68S134.05,382.4,134.05,382.4Z" style="fill:#263238"></path><path d="M137.38,429.24,136.06,436s6.71,1.58,8.56,2,7.76.14,9.08,0-.93-1.44-1.71-1.84-6.85-4.08-6.85-4.08l.4-1.18Z" style="fill:#fff;stroke:#263238;stroke-linecap:round;stroke-miterlimit:10"></path><path d="M98,381.51s25.79-10.46,28.43-11.44c5.65-2.11,13.63-1.55,14.73-1.32,2.5.53,25.93,24.08,25.93,24.08l-5,4.48L138,380.46s-14.08,8.42-17.51,10.13-11,2.77-16.71,2.37-9.21-3.29-10.13-5.13a4.29,4.29,0,0,1-.53-3" style="fill:#fff;stroke:#263238;stroke-linecap:round;stroke-miterlimit:10"></path><path d="M157.6,354.23s-.35-8.29,1-10.36a10.1,10.1,0,0,1,3.45-3.11s-9,3.45-13.81,9.32-1.73,9.32-1.73,9.32Z" style="fill:#fff;stroke:#263238;stroke-linecap:round;stroke-miterlimit:10"></path><polygon points="143.44 343.18 122.61 363.5 104.77 372.52 126.01 374.56 138.26 367 157.6 354.23 143.44 343.18" style="fill:#fff;stroke:#263238;stroke-linecap:round;stroke-miterlimit:10"></polygon><path d="M85.05,341.52s-4.75.9-4.75,5.2c0,6,6.3,24.77,9.42,30.56a2.2,2.2,0,0,0,2.85,1l27.56-12,3.62-.23,3.85-3.4,2-1.35V359.4l-7.69-.91s-2.26,0-2.94.91a40,40,0,0,0-2.27,4.75l-21.27,2.94-3.62-19" style="fill:#263238;stroke:#263238;stroke-linecap:round;stroke-miterlimit:10"></path><path d="M123.75,366l3.85-3.4,2-1.35V359.4l-7.69-.91s-2.26,0-2.94.91a40,40,0,0,0-2.27,4.75l-21.27,2.94L94.29,361l-10.35,1.65a106.83,106.83,0,0,0,5.78,14.66,2.2,2.2,0,0,0,2.85,1l27.56-12Z" style="fill:#fff;stroke:#263238;stroke-linecap:round;stroke-miterlimit:10"></path><path d="M162.12,397.31l6.71,6.18s12.76-13.42,13.16-13.95,1.58-2.76.79-2.76-14.35,6.45-14.35,6.45l-1.31-.4Z" style="fill:#fff;stroke:#263238;stroke-linecap:round;stroke-miterlimit:10"></path><line x1="117.59" y1="380.68" x2="122" y2="434.08" style="fill:none;stroke:#263238;stroke-linecap:round;stroke-miterlimit:10;stroke-width:2px"></line><line x1="84.35" y1="434.08" x2="87.98" y2="380.45" style="fill:none;stroke:#263238;stroke-linecap:round;stroke-miterlimit:10;stroke-width:2px"></line><rect x="85.16" y="378.27" width="37.16" height="2.51" rx="1.19" style="fill:#92E3A9;stroke:#263238;stroke-linecap:round;stroke-miterlimit:10"></rect></g></svg>