<svg xmlns="http://www.w3.org/2000/svg" viewBox="0 0 500 500"><g id="freepik--background-simple--inject-78"><path d="M298.92,19.51S215.27,6.73,152.16,29.43,50.91,108.77,55.31,141.69s23.48,70.64,22,91.95S39.9,313.73,49.44,364.88s96.85,107.88,204.72,106.17S418.52,440.19,434.66,398,420,267.72,417.78,245.76s29.35-93.12,20.55-133.27S372.29,28.86,298.92,19.51Z" style="fill:#92E3A9"></path><path d="M298.92,19.51S215.27,6.73,152.16,29.43,50.91,108.77,55.31,141.69s23.48,70.64,22,91.95S39.9,313.73,49.44,364.88s96.85,107.88,204.72,106.17S418.52,440.19,434.66,398,420,267.72,417.78,245.76s29.35-93.12,20.55-133.27S372.29,28.86,298.92,19.51Z" style="fill:#fff;opacity:0.7000000000000001"></path></g><g id="freepik--Floor--inject-78"><path d="M434.66,398c8.93-23.34,3.49-60.72-3.53-93.19L317.84,294.32s1.43,8.39,1.62,12.26,3.06,8.54,3.06,8.54l4.15,8.64.29,8.83s3,9.62,3.9,11.36,3.26,6.36,3.26,6.36l5.13,15.88s3.91,5.31,3.61,8.59l-.55,6,1.45,19.94-5.76,30,3.37,11.37,4,12.16L342,461.53C393.92,449.44,423.66,426.75,434.66,398Z" style="fill:#b0b0b0"></path><path d="M322.52,315.12l4.15,8.64.29,8.83s3,9.62,3.9,11.36,3.26,6.36,3.26,6.36l5.13,15.88s3.91,5.31,3.61,8.59l-.55,6,1.45,19.94-5.76,30,3.37,11.37,4,12.16L342,461.53c52-12.09,81.7-34.78,92.7-63.53,6.77-17.7,5.28-43.47,1.1-69.05l-3.7-.93-17.88-6.26-26.84-.45-5.81-3.13,8.94-3.13-20.12-2.23-32.64-7.16L328.76,303l-10.92-8.66s1.43,8.39,1.62,12.26S322.52,315.12,322.52,315.12Z" style="fill:#263238"></path><path d="M338.28,478l-.72-8.36,7.3-15.47-4-12-3.41-11.49,0-.12,5.75-29.93-1.45-19.87.55-6.09c.29-3-3.47-8.19-3.51-8.24l-.07-.15-5.13-15.88h0s-2.31-4.56-3.23-6.27-3.82-11.06-3.94-11.46l0-.13-.28-8.72-4.11-8.55c-.1-.15-2.91-4.77-3.11-8.73-.19-3.79-1.6-12.11-1.61-12.19l-.11-.64.65.06,126.44,11.7-.09,1-125.8-11.65c.34,2.05,1.36,8.4,1.52,11.67.18,3.7,3,8.26,3,8.31l4.22,8.88.29,8.76c.25.84,3,9.61,3.84,11.21s3.24,6.33,3.27,6.37L339.71,366c.47.66,4,5.6,3.65,8.86l-.56,6,1.47,19.92,0,.07-5.74,29.87,3.33,11.24,4.09,12.34-.08.18-7.27,15.42.69,8.08Z" style="fill:#263238"></path><path d="M173.68,454.77l-6-8.25.23-12.56-9.18-10.89-13.41-22.58,1.33-19.95s-.27-2.73-.6-6,3.56-8.61,3.56-8.61l5-15.91s2.3-4.64,3.22-6.38,3.83-11.39,3.83-11.39l.23-8.83,4.1-8.67s2.84-4.68,3-8.55,1.54-12.27,1.54-12.27L54,305.46c-5.17,19.25-8.16,39.89-4.52,59.42C56.56,403.05,107,444.32,177,462.1Z" style="fill:#b0b0b0"></path><path d="M179.08,480.05l-1-.16,1.7-10.22L173.24,455l-6-8.35.23-12.53-9.07-10.75-13.53-22.78,1.34-20.11-.59-5.91c-.33-3.26,3.12-8.22,3.59-8.89l5-15.83c.06-.12,2.34-4.74,3.26-6.47S161,333,161.22,332.17l.27-9,4.1-8.66c0-.09,2.8-4.67,3-8.36.14-3.28,1.12-9.64,1.44-11.69L29.55,308.38l-.1-1,141.74-14-.11.64c0,.09-1.37,8.41-1.53,12.21s-3,8.6-3.08,8.79l-4,8.53-.25,8.85c-.12.4-2.92,9.72-3.86,11.49s-3.2,6.31-3.22,6.36l-5.08,16c0,.06-3.76,5.23-3.46,8.27l.59,6-1.32,19.88,13.34,22.44,9.26,11-.24,12.58,5.94,8.21,6.68,15Z" style="fill:#263238"></path><path d="M177,462.1l-3.27-7.33-6-8.25.23-12.56-9.18-10.89-13.41-22.58,1.33-19.95s-.27-2.73-.6-6,3.56-8.61,3.56-8.61l5-15.91s2.3-4.64,3.22-6.38,3.83-11.39,3.83-11.39l.23-8.83,4.1-8.67s2.84-4.68,3-8.55c.06-1.46.3-3.57.57-5.62l-15.26,3.29-44.71,4-8.05,8.49-50.44.76c-3.3,15.77-4.64,32.1-1.72,47.73C56.56,403.05,107,444.32,177,462.1Z" style="fill:#263238"></path></g><g id="freepik--Clouds--inject-78"><path d="M307.89,253.71H247.6l.47-.76c.11-.17,2.65-4.24,6-4.57a9.66,9.66,0,0,1,3.74.51c1.38.4,2.13.57,2.77-.06a5.84,5.84,0,0,0,1-1.55,5.1,5.1,0,0,1,4.21-3.23,7.87,7.87,0,0,1,4.55.87c1.7.7,3.3,1.37,5.56.4a7.1,7.1,0,0,0,3.1-3.13c1.28-2,2.61-4.11,7.11-3.09,6.27,1.43,9,8.91,9.54,10.78a5.5,5.5,0,0,0,1.6-.79c1.41-.88,3.15-2,6-.67,4.22,2,4.6,4.62,4.62,4.73Zm-58.43-1h57.18c-.34-.77-1.28-2.19-3.86-3.38-2.34-1.08-3.71-.22-5,.61a4.76,4.76,0,0,1-2.49,1h-.39l-.1-.37c0-.09-2.48-9-8.91-10.47-3.82-.87-4.8.68-6.05,2.65a7.87,7.87,0,0,1-3.55,3.51c-2.65,1.13-4.61.32-6.33-.4a7,7,0,0,0-4-.8,4.11,4.11,0,0,0-3.49,2.7,7.2,7.2,0,0,1-1.19,1.8c-1.08,1.08-2.38.71-3.76.31a8.88,8.88,0,0,0-3.36-.48C252.1,249.58,250.32,251.58,249.46,252.71Z" style="fill:#263238"></path><path d="M312.69,422.75H173.49L174,422c.25-.4,6-9.65,13.43-10.39a22.05,22.05,0,0,1,8.5,1.18c3.08.89,5.31,1.52,7.14-.31a14.55,14.55,0,0,0,2.5-3.8c1.58-3,3.2-6.18,9.37-7.21,3.92-.66,7.16.69,10.28,2,4.11,1.71,8,3.32,13.53.94,3.81-1.63,5.72-4.66,7.57-7.58,3-4.75,5.85-9.24,15.93-6.94,14.88,3.38,21.12,22.38,22,25.34,1.53-.13,2.95-1,4.59-2,3.15-2,7.07-4.43,13.37-1.52,9.57,4.41,10.41,10.29,10.44,10.54Zm-137.37-1H311.49c-.47-1.52-2.4-5.81-9.73-9.2-5.8-2.68-9.32-.48-12.42,1.47-1.82,1.13-3.53,2.2-5.49,2.2h-.38l-.1-.37c-.06-.21-5.91-21.49-21.38-25-9.4-2.14-11.93,1.87-14.86,6.5-1.94,3.06-3.94,6.22-8,8-5.93,2.54-10.19.77-14.3-.94-3.14-1.3-6.09-2.53-9.73-1.93-5.68.95-7.12,3.74-8.65,6.69a15.4,15.4,0,0,1-2.68,4.05c-2.25,2.25-5,1.47-8.13.56a20.92,20.92,0,0,0-8.12-1.14C181.76,413.17,176.87,419.53,175.32,421.75Z" style="fill:#263238"></path><path d="M118.69,229H58.41l.47-.76c.11-.17,2.65-4.24,5.95-4.57a9.64,9.64,0,0,1,3.74.52c1.38.39,2.13.57,2.77-.06a5.74,5.74,0,0,0,1-1.56,5.1,5.1,0,0,1,4.21-3.23,8,8,0,0,1,4.55.87c1.69.71,3.3,1.37,5.55.4a7,7,0,0,0,3.11-3.12c1.28-2,2.6-4.12,7.11-3.1,6.27,1.43,9,8.92,9.54,10.79a5.31,5.31,0,0,0,1.6-.8c1.4-.88,3.15-2,6-.66,4.23,1.95,4.61,4.61,4.62,4.72Zm-58.42-1h57.18c-.34-.77-1.28-2.18-3.87-3.38-2.34-1.08-3.71-.22-5,.61a4.78,4.78,0,0,1-2.5,1h-.38l-.1-.37c0-.09-2.48-9-8.91-10.48-3.82-.87-4.8.69-6,2.65a7.92,7.92,0,0,1-3.55,3.51c-2.65,1.14-4.61.32-6.34-.4a7,7,0,0,0-4-.8,4.11,4.11,0,0,0-3.49,2.7,6.82,6.82,0,0,1-1.2,1.8c-1.08,1.08-2.37.71-3.75.32a8.53,8.53,0,0,0-3.36-.48C62.91,224.87,61.12,226.88,60.27,228Z" style="fill:#263238"></path><path d="M151.52,61.87H67l.47-.76c.15-.24,3.68-5.91,8.25-6.36a13.35,13.35,0,0,1,5.2.72c2,.56,3.14.84,4.12-.14a8.66,8.66,0,0,0,1.47-2.25c.93-1.79,2-3.81,5.8-4.45,2.42-.4,4.4.42,6.31,1.21,2.44,1,4.74,2,8,.57,2.24-1,3.38-2.76,4.48-4.5,1.77-2.8,3.59-5.69,9.82-4.27,9,2,12.69,13,13.38,15.26a7,7,0,0,0,2.52-1.18c1.94-1.21,4.36-2.73,8.26-.93,5.87,2.71,6.39,6.36,6.41,6.52Zm-82.73-1h81.5c-.4-1-1.68-3.33-5.67-5.17-3.41-1.57-5.39-.33-7.31.87a6.62,6.62,0,0,1-3.42,1.36h-.38l-.1-.37c0-.13-3.54-12.85-12.75-15-5.54-1.26-7,1.1-8.76,3.84-1.13,1.78-2.4,3.8-4.93,4.88-3.66,1.57-6.26.48-8.79-.57-1.86-.77-3.62-1.5-5.76-1.15-3.32.56-4.17,2.2-5.07,3.93A9.38,9.38,0,0,1,85.69,56c-1.44,1.44-3.21.93-5.09.39a12.48,12.48,0,0,0-4.83-.69C72.63,56.06,69.9,59.35,68.79,60.87Z" style="fill:#263238"></path><path d="M431.53,66.18H313.8l.47-.76c.21-.33,5.1-8.17,11.39-8.8a18.4,18.4,0,0,1,7.21,1c2.57.73,4.43,1.27,5.95-.25a12.34,12.34,0,0,0,2.1-3.19c1.33-2.58,2.72-5.25,8-6.12,3.34-.56,6.07.58,8.72,1.68,3.45,1.43,6.71,2.79,11.36.8,3.19-1.37,4.8-3.92,6.36-6.38,2.55-4,5-7.83,13.53-5.89,12.67,2.88,17.81,18.62,18.62,21.39A9.51,9.51,0,0,0,411.24,58c2.68-1.67,6-3.76,11.37-1.29,8.11,3.75,8.82,8.75,8.85,9Zm-115.9-1H430.32c-.44-1.34-2.13-4.84-8.13-7.61-4.87-2.25-7.82-.4-10.42,1.23-1.54,1-3,1.88-4.67,1.88h-.39l-.1-.38c0-.18-5-18.1-18-21-7.88-1.8-10,1.56-12.47,5.45-1.63,2.59-3.33,5.27-6.8,6.76-5,2.15-8.65.65-12.14-.8-2.63-1.09-5.12-2.13-8.17-1.62-4.75.79-6,3.13-7.25,5.6a13,13,0,0,1-2.27,3.44c-1.93,1.93-4.25,1.27-6.94.5a17.47,17.47,0,0,0-6.83-1C321.06,58.08,317,63.21,315.63,65.18Z" style="fill:#263238"></path></g><g id="freepik--speech-bubble-2--inject-78"><path d="M302.27,79.92c11.58.36,20.75,7.39,20.5,15.7-.15,4.75-3.34,8.88-8.2,11.49L326.28,121l-16.74-11.93a28,28,0,0,1-8.2.93c-11.58-.36-20.75-7.39-20.5-15.7S290.7,79.56,302.27,79.92Z" style="fill:#fff"></path><path d="M329.21,123.72l-19.77-14.09a28.36,28.36,0,0,1-8.12.89c-11.83-.37-21.24-7.64-21-16.21.13-4.19,2.51-8,6.7-10.85a26,26,0,0,1,15.25-4c11.83.37,21.24,7.65,21,16.22-.15,4.59-3,8.8-7.93,11.61Zm-19.57-15.17,13.72,9.77L313.79,107l.54-.29c4.91-2.64,7.8-6.67,7.94-11.06.25-8-8.73-14.84-20-15.19a25.07,25.07,0,0,0-14.67,3.87c-3.91,2.62-6.13,6.19-6.25,10-.25,8,8.73,14.83,20,15.18a27.57,27.57,0,0,0,8.06-.91Z" style="fill:#263238"></path><path d="M299.37,105.49l.13-4.17,4.23.13-.13,4.17Zm1.55-5.61-.78-16.57,4.45.14-2.13,16.48Z" style="fill:#263238"></path></g><g id="freepik--speech-bubble-1--inject-78"><path d="M191.63,85.64c-11.58,0-21,6.74-21,15.06,0,4.74,3.06,9,7.84,11.73L166.36,126l17.1-11.4a28.25,28.25,0,0,0,8.17,1.18c11.58,0,21-6.74,21-15S203.21,85.64,191.63,85.64Z" style="fill:#fff"></path><path d="M163.35,128.58l14.37-16c-4.81-3-7.56-7.25-7.56-11.84,0-8.58,9.63-15.56,21.47-15.56s21.47,7,21.47,15.56-9.63,15.55-21.47,15.55a28.5,28.5,0,0,1-8.09-1.14Zm28.28-42.44c-11.29,0-20.47,6.53-20.47,14.56,0,4.39,2.76,8.51,7.59,11.29l.53.31-9.92,11.06,14-9.34.23.07a27.63,27.63,0,0,0,8,1.16c11.29,0,20.47-6.53,20.47-14.55S202.92,86.14,191.63,86.14Z" style="fill:#263238"></path><path d="M189.47,111.29v-4.18h4.23v4.18Zm1.37-5.66-1.29-16.54H194l-1.62,16.54Z" style="fill:#263238"></path></g><g id="freepik--character-2--inject-78"><polygon points="398.3 81.99 391.04 124.77 341.61 119.78 339.69 119.31 346.08 78.29 398.3 81.99" style="fill:#fff"></polygon><path d="M391.46,125.31l-49.9-5-2.44-.59,6.54-41.93,53.23,3.77Zm-51.21-6.38,1.48.36,48.9,4.93,7.09-41.77L346.5,78.82Z" style="fill:#263238"></path><path d="M402.74,130.67l-5.38-17.42,2.2-11.65-4.25-4.21-4,1.1a.64.64,0,0,0,.08.72c.3.31,3.05.3,3.05.3l1.19,1-2.75-.08-2.29,1.46s-.05,1.73-.11,3.56.61,0,1,.13,1.92.47,1.92.47l-.91,9.45,1.8,15.33Z" style="fill:#fff"></path><path d="M393.85,131.4,392,115.56l.87-9.07-1.35-.33-.16.17c-.22.26-.52.62-.94.45s-.47-.71-.45-1.3l.12-3.82,2.64-1.69H393c-1.67-.08-1.9-.33-2-.43a1.15,1.15,0,0,1-.15-1.3l.1-.18,4.5-1.24,4.64,4.6-2.22,11.79,5.53,17.93ZM393,115.55l1.73,14.82,7.32-.18-5.21-16.91L399,101.77,395.16,98l-3.37.93a22.35,22.35,0,0,0,2.63.13h.2L397,101.1l-4-.12-1.94,1.23L391,105.3a.72.72,0,0,1,.64-.15c.4.11,1.9.46,1.9.46l.43.1Zm.7-15.55.54,0h-.54Z" style="fill:#263238"></path><path d="M395,113.84a1.69,1.69,0,0,1-1.44-.71c-.63-.9-.83-4.21-.86-4.87l1-.05a14.9,14.9,0,0,0,.68,4.35c.35.5,1.11.19,1.12.18l.39.93A2.43,2.43,0,0,1,395,113.84Z" style="fill:#263238"></path><polygon points="398.14 103.78 393.65 102.45 390.91 103.33 390.6 102.38 393.63 101.41 398.43 102.82 398.14 103.78" style="fill:#263238"></polygon><polygon points="397.8 105.6 393.65 104.58 390.77 104.98 390.64 103.99 393.7 103.56 398.04 104.63 397.8 105.6" style="fill:#263238"></polygon><path d="M338.2,101.73s-2.91,5-2.72,5.32,2.86,6.41,2.86,6.41l-3.53,14.21,6.68.8.12-8.69-1.92-.47,1.8-12,1.83-3.31Z" style="fill:#fff"></path><path d="M342,129l-7.79-.93,3.62-14.6c-1-2.31-2.6-5.91-2.76-6.19s-.35-.56,2.71-5.83l.23-.39,6,2.71-2,3.7-1.72,11.43,1.87.46Zm-6.55-1.79,5.56.67.11-7.74-2-.48,1.92-12.59,1.57-2.83-4.22-1.89A45.74,45.74,0,0,0,336,107c.45.92,2.23,5,2.81,6.31l.07.16Z" style="fill:#263238"></path><path d="M338.09,105.2s3,2.64,3.4,2.14a13.16,13.16,0,0,0,1.83-3.31c.13-.71-2.06-2.61-2.06-2.61a18.71,18.71,0,0,0,1.91,1c.4.11,1,.13,1.13-.37s-3.37-3-3.37-3-.58-.94-1.12-.14-2.89,4.39-2.91,5.21" style="fill:#fff"></path><path d="M341.34,107.9c-.83,0-2.59-1.45-3.58-2.33l.66-.75a13.94,13.94,0,0,0,2.8,2.05,13.07,13.07,0,0,0,1.61-2.92,7.65,7.65,0,0,0-1.9-2.15l.58-.81a15.15,15.15,0,0,0,1.8.93,1.09,1.09,0,0,0,.41,0,23.54,23.54,0,0,0-3.08-2.48l-.14-.15a.7.7,0,0,0-.21-.21l-.06.09a24.49,24.49,0,0,0-2.83,5l-1,0c0-1,2.3-4.43,3-5.47a1,1,0,0,1,.9-.54,1.34,1.34,0,0,1,1,.6c3.69,2.6,3.57,3.14,3.5,3.43a1,1,0,0,1-.48.65,1.43,1.43,0,0,1-.91.16,1.75,1.75,0,0,1,.41,1.17,13.13,13.13,0,0,1-1.94,3.54.68.68,0,0,1-.49.24Z" style="fill:#263238"></path><path d="M342.44,105.4c-.88-.82-3.22-3-3.54-3.24l.63-.79c.4.33,3.27,3,3.59,3.3Z" style="fill:#263238"></path><rect x="339.79" y="102.57" width="1" height="4.67" transform="translate(48.48 308.99) rotate(-52.1)" style="fill:#263238"></rect><rect x="340.27" y="100.09" width="1" height="1.51" transform="translate(16.13 245.41) rotate(-40.49)" style="fill:#263238"></rect><path d="M354.69,189.24s.44,12.92-.26,17.52,1.41,28.44,4,34.83,7.92,20.44,8.41,22.56.14,11.07.14,11.07-1.16,10.34-1.62,11.59a51,51,0,0,1-3.7,6.06,35.39,35.39,0,0,1-5.88,4.44c-1.57.93-3.83,1.42-2.75,2.58s8.79,1.39,11.46,1.34a29.71,29.71,0,0,0,7.2-1.46c.7-.26,1.19-2.21,1.06-2.63s1.68.05,3.09-.19,4.08-.29,4.12-1.83a68.7,68.7,0,0,0-1.93-9.88c-.27-.57-1.91-11-1.91-11s3.62-12.32,4-17.37c.27-3.78-.55-6.06-.5-11.12s9.82-26,10.56-31.87.58-12.45-2.06-17.72-5-10.11-5-10.11l-1.92-1.6-26.86,2.67Z" style="fill:#b0b0b0"></path><path d="M364,301.73c-2.11,0-10-.1-11.31-1.5a1.21,1.21,0,0,1-.4-1.1c.14-.74,1-1.15,2-1.63a12.68,12.68,0,0,0,1.22-.62,37,37,0,0,0,5.74-4.3,52.05,52.05,0,0,0,3.63-5.94c.32-.88,1.13-7.34,1.59-11.47,0-.06.35-8.88-.12-10.9s-5.84-16.22-8.39-22.49-4.81-30.16-4.06-35.09c.68-4.4.29-16.67.26-17.4l-.43-2.61,27.6-2.74,2.21,1.9s2.37,4.84,5,10.11c2.32,4.64,3,10.7,2.11,18-.36,2.83-2.68,8.86-5.14,15.25-2.65,6.87-5.39,14-5.42,16.56a52.08,52.08,0,0,0,.31,5.79,29.45,29.45,0,0,1,.19,5.37c-.35,4.85-3.59,16.05-4,17.36.62,3.93,1.65,10.24,1.85,10.76a67.11,67.11,0,0,1,2,10.09c-.05,1.73-2.22,2-3.81,2.21l-.73.11a9.37,9.37,0,0,1-2.11,0l-.55,0c0,.9-.57,2.48-1.4,2.79a30.26,30.26,0,0,1-7.36,1.49Zm-9.08-114.16.27,1.66c0,.53.44,13-.27,17.61s1.51,28.46,4,34.57c2.58,6.32,7.93,20.42,8.44,22.63s.16,10.83.15,11.2c-.12,1.1-1.19,10.48-1.65,11.74a51,51,0,0,1-3.76,6.18c-.66.93-4.46,3.64-6,4.58-.42.25-.87.46-1.31.67s-1.43.67-1.47.9c0,0,0,.1.15.24.75.8,7.14,1.26,11.08,1.18a29.47,29.47,0,0,0,7-1.43c.35-.13.81-1.64.75-2a.58.58,0,0,1,.1-.54c.26-.32.7-.3,1.5-.25a8.55,8.55,0,0,0,1.89,0l.77-.11c1.22-.16,2.91-.38,2.93-1.25a70,70,0,0,0-1.89-9.65c-.27-.58-1.55-8.66-1.94-11.13l0-.11,0-.11c0-.12,3.6-12.32,4-17.26a28.52,28.52,0,0,0-.18-5.19,51,51,0,0,1-.32-5.9c0-2.76,2.68-9.63,5.48-16.91,2.33-6.05,4.74-12.31,5.09-15,.9-7.1.22-13-2-17.42-2.42-4.84-4.62-9.32-5-10L381,185Z" style="fill:#263238"></path><path d="M373.19,292.52l1.89-11.16-8.66-1.11,0,0a63.16,63.16,0,0,1-1,6.54,51,51,0,0,1-3.7,6.06,35.39,35.39,0,0,1-5.88,4.44c-1.57.93-3.83,1.42-2.75,2.58s8.79,1.39,11.46,1.34a29.71,29.71,0,0,0,7.2-1.46c.4-.15.72-.84.91-1.49l.15-1.14s0-.06,0-.08Z" style="fill:#fff"></path><path d="M364,301.73c-2.11,0-10-.1-11.31-1.5a1.21,1.21,0,0,1-.4-1.1c.14-.74,1-1.15,2-1.63a12.68,12.68,0,0,0,1.22-.62,37,37,0,0,0,5.74-4.3,52.05,52.05,0,0,0,3.63-5.94,51.28,51.28,0,0,0,1-6.44l0-.26.37-.19h.19l9.17,1.17-2,11.66-.41,4.5h0l-.17,1.26c-.21.77-.59,1.65-1.23,1.89a30.26,30.26,0,0,1-7.36,1.49Zm2.83-20.92c-.68,5.35-.91,6-1,6.17a51,51,0,0,1-3.76,6.18c-.66.93-4.46,3.64-6,4.58-.42.25-.87.46-1.31.67s-1.43.67-1.47.9c0,0,0,.1.15.24.75.8,7.14,1.26,11.08,1.18a29.47,29.47,0,0,0,7-1.43,2.18,2.18,0,0,0,.6-1.15l.12-1,0-.09,0-.14.42-4.51,1.8-10.65Z" style="fill:#263238"></path><path d="M373.67,290.57l-.89,6.48c.17-.26,1.79.12,3.08-.1s4.08-.29,4.12-1.83a68.7,68.7,0,0,0-1.93-9.88c-.27-.57-1.91-11-1.91-11l-1.06,7.11Z" style="fill:#fff"></path><path d="M372,299.27l1.21-8.77,2.95-19.56.51,3.23c.62,3.92,1.67,10.34,1.87,10.87a67.11,67.11,0,0,1,2,10.09c-.05,1.73-2.22,2-3.81,2.21l-.73.11a9.37,9.37,0,0,1-2.11,0c-.25,0-.55,0-.71,0Zm1.4-2.81.52,0a8.56,8.56,0,0,0,1.89,0l.76-.11c1.23-.16,2.92-.38,2.94-1.25a70,70,0,0,0-1.89-9.65c-.19-.42-.9-4.64-1.43-7.93l-2,13.13Z" style="fill:#263238"></path><path d="M364.51,301.23a29.71,29.71,0,0,0,7.2-1.46.8.8,0,0,0,.23-.16l0,0a1.18,1.18,0,0,0,.19-.24l.06-.08.14-.27a1.34,1.34,0,0,0,.07-.18.61.61,0,0,0,.05-.12c0-.14.1-.27.14-.41h0l.15-1.14s0-.06,0-.08h0l.36-3.95a31.77,31.77,0,0,1-5.58.08,22.41,22.41,0,0,0-1.18-2.42c-.4-.63-2-.7-2.86-.68-.77,1.22-1.55,2.37-1.84,2.78a35.39,35.39,0,0,1-5.88,4.44c-1.57.93-3.83,1.42-2.75,2.58S361.84,301.28,364.51,301.23Z" style="fill:#263238"></path><path d="M364,301.73c-2.11,0-10-.1-11.31-1.5a1.21,1.21,0,0,1-.4-1.1c.14-.74,1-1.15,2-1.63a12.68,12.68,0,0,0,1.22-.62,37,37,0,0,0,5.74-4.3c.27-.39,1.05-1.54,1.82-2.76l.15-.23h.27c1.78,0,2.89.28,3.28.91a18,18,0,0,1,1.1,2.21,31.17,31.17,0,0,0,5.18-.09l.61-.07-.41,4.54h0l-.17,1.26a2.82,2.82,0,0,1-.16.51l-.13.33q-.09.18-.18.33l-.06.09a1.42,1.42,0,0,1-.25.32,1.3,1.3,0,0,1-.45.31,30.26,30.26,0,0,1-7.36,1.49H364Zm-.2-11.14c-.74,1.15-1.44,2.19-1.71,2.57-.66.93-4.46,3.64-6,4.58-.42.25-.87.46-1.31.67s-1.43.67-1.47.9c0,0,0,.1.15.24.75.8,7.14,1.26,11.08,1.18a29.47,29.47,0,0,0,7-1.43l.08-.07a.84.84,0,0,0,.13-.17,3.3,3.3,0,0,0,.16-.29l.06-.14.5.09-.45-.21.12-.37.12-1,0-.09,0-.14.31-3.28a32.09,32.09,0,0,1-5.07,0l-.3,0-.12-.28A20.72,20.72,0,0,0,366,291C365.85,290.88,365.28,290.6,363.8,290.59Z" style="fill:#263238"></path><path d="M375.86,297c1.41-.23,4.08-.29,4.12-1.83a27.4,27.4,0,0,0-.6-4.08,23.46,23.46,0,0,1-4.77,1.11,6.76,6.76,0,0,0-1.17.11l-.66,4.79C373,296.79,374.57,297.17,375.86,297Z" style="fill:#263238"></path><path d="M372,299.27l1-7.42.34-.08a8,8,0,0,1,1.26-.12,21.8,21.8,0,0,0,4.63-1.09l.54-.17.11.55a25.22,25.22,0,0,1,.61,4.19c-.05,1.73-2.22,2-3.81,2.21l-.73.11a9.37,9.37,0,0,1-2.11,0c-.25,0-.55,0-.71,0Zm1.4-2.81.52,0a8.56,8.56,0,0,0,1.89,0h0l.76-.11c1.23-.16,2.92-.38,2.94-1.25a22.19,22.19,0,0,0-.49-3.42,20.16,20.16,0,0,1-4.36,1c-.33,0-.57,0-.74.05Z" style="fill:#263238"></path><path d="M377.7,201.53l-.78-.63,1-1.18.64-.78.78.62-.64.79Z" style="fill:#263238"></path><path d="M366.85,258.33c-.08-2.7-.22-6.6-.42-9.85-.28-4.6,1.12-12.78,2-17.67.26-1.52.46-2.72.51-3.23.21-2.07,2-15.48,3.52-19.44a24,24,0,0,1,2.74-4.91l.82.58a22.64,22.64,0,0,0-2.62,4.69c-1.5,3.8-3.27,17.21-3.46,19.18,0,.54-.25,1.7-.53,3.3-.77,4.53-2.22,13-1.94,17.44.2,3.27.34,7.17.42,9.88Z" style="fill:#263238"></path><path d="M367,262.73s0-1-.06-2.54l1,0c0,1.55.06,2.55.06,2.55Z" style="fill:#263238"></path><path d="M363.24,205.15a44.89,44.89,0,0,1-6-9l.9-.45a44.27,44.27,0,0,0,5.81,8.76Z" style="fill:#263238"></path><path d="M349.85,136s-3-1.87-3-3,3.24-1.32,3.37-1.67-1.75-.88-.84-3.69,8.18-4.13,12.08-4,9.59,3.5,10.25,5.17,2.11,4.21,1.68,6.68a5.62,5.62,0,0,0,.7,4s7.65,1.54,8.15,4.4-.91,6.48-.91,6.48,6,.18,7.86,5.8-3.3,7.23-2.86,8.31,2.69.91,2.69,4.82-6.29,8.44-9.86,8.8-10.77.38-14.83-6.26-.88-13.28-3-17.72-2.42-9.89-3.79-11.47S349.85,136,349.85,136Z" style="fill:#263238"></path><path d="M376.78,178.69c-5.77,0-10.19-2.27-12.85-6.63-2.43-4-2.35-7.91-2.28-11.39.05-2.47.09-4.61-.75-6.37a36.37,36.37,0,0,1-2.22-7c-.47-2-.89-3.69-1.49-4.38-1.28-1.48-7.21-6.21-7.63-6.54-.79-.5-3.23-2.13-3.19-3.48,0-1.16,1.63-1.53,2.78-1.8l.29-.07c-.51-.55-1.18-1.58-.51-3.63,1.07-3.27,8.83-4.46,12.56-4.35,3.93.13,9.91,3.48,10.7,5.49.12.31.27.64.43,1,.7,1.6,1.66,3.78,1.28,5.95a5.35,5.35,0,0,0,.52,3.51c1.44.31,7.82,1.83,8.33,4.75a14,14,0,0,1-.72,6.14c1.69.24,6.11,1.33,7.66,6.08,1.36,4.17-.93,6.37-2.16,7.56a4,4,0,0,0-.71.78,2.27,2.27,0,0,0,.62.51c.84.58,2.1,1.46,2.1,4.43,0,4.17-6.52,8.91-10.3,9.3C378.39,178.64,377.57,178.69,376.78,178.69Zm-15.85-54.64c-4.12,0-10.3,1.38-11.05,3.67-.58,1.78.08,2.44.48,2.83.21.21.49.49.35.88s-.54.47-1.33.65c-.54.13-2,.47-2,.86,0,.54,1.41,1.78,2.75,2.61l0,0c.26.2,6.41,5.09,7.79,6.69.76.87,1.18,2.6,1.71,4.8a33.91,33.91,0,0,0,2.15,6.79c.94,2,.89,4.33.84,6.82-.07,3.34-.14,7.13,2.13,10.85,3.56,5.82,9.78,6.49,14.35,6,3.37-.34,9.41-4.66,9.41-8.3,0-2.44-.89-3.06-1.67-3.61a2.41,2.41,0,0,1-1-1c-.27-.65.29-1.19.94-1.81,1.23-1.18,3.08-3,1.91-6.53-1.7-5.21-7.18-5.46-7.41-5.46l-.7,0,.25-.66s1.36-3.53.89-6.21c-.33-1.83-4.93-3.42-7.75-4l-.2,0-.11-.15a6.16,6.16,0,0,1-.79-4.43c.33-1.86-.53-3.81-1.22-5.37l-.44-1c-.54-1.38-6-4.74-9.8-4.86Z" style="fill:#263238"></path><path d="M351,143.71l-9-4.54.46-7.09-8.14-.6S332,144.77,332.62,146s16.57,15.19,16.57,15.19,2.36,19.12,2,22.3a48.66,48.66,0,0,0-.2,6.38s8.43,2.63,15.54,2.38S384,186.14,384,186.14s-2.66-5.88-2.64-6.24,2.25-19.21,2.25-19.21,16.12-10.87,17.09-11.55a40.37,40.37,0,0,0,3.67-3.79l-.79-10.66-9.7.06-1.88,7-21.85,6.53Z" style="fill:#92E3A9"></path><path d="M365.56,192.74a57.38,57.38,0,0,1-14.69-2.42l-.34-.1v-.36a49.64,49.64,0,0,1,.2-6.45c.31-2.93-1.76-20-2-22-3-2.61-15.85-14-16.52-15.19s1.12-11.67,1.69-14.83l.08-.45,9.09.68-.47,7.25,8.63,4.36,19,4.57,21.45-6.41,1.9-7.14,10.56-.06.83,11.33-.14.15a40.17,40.17,0,0,1-3.75,3.88c-.92.64-15,10.14-16.91,11.43-.77,6.49-2.2,18.51-2.23,19s1.4,3.34,2.61,6l.19.42-.4.22c-.43.24-10.55,5.89-17.69,6.15Zm-14.05-3.27c1.63.47,8.87,2.47,15,2.25s14.87-4.74,16.83-5.8c-2.51-5.58-2.5-5.91-2.49-6,0-.36,1.88-16.11,2.25-19.26l0-.23.19-.13c.16-.1,16.13-10.87,17.08-11.54a35.79,35.79,0,0,0,3.44-3.55l-.73-10-8.86.05-1.84,6.94-22.25,6.66-19.38-4.69-9.27-4.69.45-6.91-7.2-.54c-1.12,6.21-2.06,12.94-1.72,13.73.51.86,10.36,9.69,16.45,15l.14.13,0,.19c.1.78,2.37,19.21,2,22.41A48.1,48.1,0,0,0,351.51,189.47Z" style="fill:#263238"></path><path d="M365.54,188.49l-.64-.77c1.4-1.16,10-10.76,10.11-10.85l.74.66C375.4,177.93,367,187.28,365.54,188.49Z" style="fill:#263238"></path><rect x="366.46" y="179.8" width="6.74" height="1" transform="translate(8.42 376.94) rotate(-54.54)" style="fill:#263238"></rect><polygon points="349.19 161.16 347.43 153.73 346.2 158.21 349.19 161.16" style="fill:#263238"></polygon><path d="M350.08,162.73l-4.44-4.37,1.82-6.65Zm-3.32-4.67,1.54,1.52-.91-3.84Z" style="fill:#263238"></path><path d="M364.4,147.43c-.88-1.92.55-6.25.55-6.25s1.4-3-.23-4-3.14,2.27-3.14,2.27-2.36-.43-3.26-1.76-.85-3.1-2-4.56-4.06-2.61-4.06-2.61-2.62,4.3-2.42,5.49a11.77,11.77,0,0,1,.18,2s-2.94,3.22-2.37,3.71a9.58,9.58,0,0,0,2.34,1s1.07,7.36,2.13,7.52a18.09,18.09,0,0,0,3.56-.25l1.81,2.66s-.49,4.13.53,5.81,5.23,2.89,8.14.73,3.7-8.88,3.72-9.47a6.58,6.58,0,0,1,.28-1.41S365.29,149.35,364.4,147.43Z" style="fill:#fff"></path><path d="M362.48,160.86a7.42,7.42,0,0,1-1.48-.14,5.16,5.16,0,0,1-3.4-2c-1-1.62-.7-5.08-.62-5.94l-1.53-2.25a16,16,0,0,1-3.39.2c-.93-.13-1.78-2.7-2.51-7.63a8.48,8.48,0,0,1-2.21-1,.71.71,0,0,1-.25-.52c0-.88,1.59-2.83,2.44-3.77a12.27,12.27,0,0,0-.17-1.74c-.22-1.27,1.85-4.78,2.48-5.83l.22-.36.39.16c.13.05,3.07,1.22,4.27,2.77a7.51,7.51,0,0,1,1.23,2.68,7,7,0,0,0,.78,1.9,4.71,4.71,0,0,0,2.58,1.46,4.76,4.76,0,0,1,2.27-2.3,1.69,1.69,0,0,1,1.4.18c2,1.22.49,4.53.43,4.67-.37,1.1-1.21,4.41-.55,5.83s4,.86,5.21.61l.84-.17-.26.81a5.6,5.6,0,0,0-.26,1.28c0,.07-.66,7.43-3.93,9.85A6.62,6.62,0,0,1,362.48,160.86Zm-6.56-11.4,2.09,3.07,0,.19c-.13,1.1-.29,4.23.46,5.5a4.28,4.28,0,0,0,2.74,1.52,5.94,5.94,0,0,0,4.68-.94c2.62-2,3.5-8.3,3.52-9.08a5.07,5.07,0,0,1,.1-.77c-1.53.23-4.72.46-5.54-1.31-1-2.07.47-6.43.53-6.62s1.19-2.7,0-3.44a.69.69,0,0,0-.59-.09c-.8.25-1.62,1.66-1.84,2.14l-.16.35-.38-.07c-.11,0-2.57-.48-3.59-2a7.76,7.76,0,0,1-.91-2.17,6.78,6.78,0,0,0-1.05-2.36,10.36,10.36,0,0,0-3.47-2.29c-1.13,1.93-2.22,4.19-2.12,4.78a12.43,12.43,0,0,1,.18,2.11v.19l-.12.13a13.35,13.35,0,0,0-2.29,3.09,10.64,10.64,0,0,0,2,.83l.31.09,0,.31c.46,3.14,1.29,6.75,1.79,7.13a19.27,19.27,0,0,0,3.33-.27Z" style="fill:#263238"></path><path d="M351.6,144.55a2.08,2.08,0,0,1,1.57-1.13c1.07-.09,2.23.42,2.21,1.25s-.85.68-2.16.88S351.45,145.37,351.6,144.55Z" style="fill:#263238"></path><path d="M353,137.73c0,.59-.27,1.06-.56,1.05s-.52-.49-.5-1.08.27-1.06.56-1S353,137.15,353,137.73Z" style="fill:#263238"></path><path d="M351.76,136l-.73-.69a2.91,2.91,0,0,1,2.62-.79l-.21,1A1.87,1.87,0,0,0,351.76,136Z" style="fill:#263238"></path><polygon points="355.69 150 360.22 148.72 357.5 152.66 355.69 150" style="fill:#263238"></polygon><path d="M357.49,153.54l-2.61-3.83,6.54-1.85Zm-1-3.25,1,1.49,1.52-2.2Z" style="fill:#263238"></path><rect x="357.95" y="152.41" width="1" height="3.87" transform="translate(-29.54 196.49) rotate(-29.5)" style="fill:#263238"></rect><polygon points="393.78 131.07 393.15 136.14 404.36 137.08 404.2 130.81 393.78 131.07" style="fill:#92E3A9"></polygon><path d="M404.87,137.63l-12.28-1,.74-6,11.35-.29Zm-11.16-1.94,10.13.85-.13-5.22-9.49.24Z" style="fill:#263238"></path><polygon points="333.78 127.67 333.46 134.4 343.37 135.07 343.33 128.8 333.78 127.67" style="fill:#92E3A9"></polygon><path d="M343.88,135.6l-10.95-.73.38-7.76,10.52,1.24Zm-9.9-1.66,8.89.59,0-5.29-8.58-1Z" style="fill:#263238"></path></g><g id="freepik--character-1--inject-78"><polygon points="151.02 203 142.82 202.31 133.25 178.24 142.81 180.46 151.02 203" style="fill:#263238"></polygon><path d="M151.76,203.57l-9.29-.79-10-25.24,10.76,2.5Zm-8.59-1.74,7.11.61-7.85-21.55L134.06,179Z" style="fill:#263238"></path><path d="M142.82,202.31s3,19,3.85,26.46,1.49,25.33,1.62,28.16-.59,26.49-.59,26.49a36.27,36.27,0,0,1,1.63,4.54c0,.71.3,2.65.3,2.65l8.6,5.83c.74.5,2,.8,1.86,1.69s-4.2,1.43-7.05,1.38-5.17-.48-6.58-.41-6.41-.25-7.49-.73-.65-6.36-.69-7.25-1.12-1.37-.86-3.51,1-4.84,1-6.08-2-13.76-2.07-14.47-5.67-31.36-5.73-32.6S128,220,128,220l-2,2.58s-7.86,38.35-8.32,40-4.91,17.27-4.89,17.8a37.47,37.47,0,0,1-.72,3.76s1.19,2.61.36,3.89-3.2,4.05-3.2,4.05-1.17,5.38-2,7.72-2.52,3.14-4.27,3.75-4.46-.51-3.24-5a66.55,66.55,0,0,0,1.71-9.31,8,8,0,0,1-.7-3.69c.29-1.44,1.65-2.92,2.26-5.08s-.79-9.73-.18-16,3.69-20.59,3.69-20.59l1.19-36.63.31-5,23.27-3.88Z" style="fill:#263238"></path><path d="M102.06,304.19a3,3,0,0,1-2.08-.79c-.76-.71-1.51-2.15-.73-5a68.07,68.07,0,0,0,1.68-9.1,8.1,8.1,0,0,1-.68-3.87,8.75,8.75,0,0,1,1-2.32,12.93,12.93,0,0,0,1.26-2.8,24.32,24.32,0,0,0-.06-5.61,64.63,64.63,0,0,1-.14-10.27c.6-6.2,3.67-20.5,3.7-20.64l1.18-36.55.34-5.4,23.78-4,12,4.06,0,.3c0,.19,3,19.14,3.86,26.48.75,6.43,1.32,20.85,1.54,26.28l.08,1.92c.12,2.75-.52,24.47-.58,26.41a29.66,29.66,0,0,1,1.62,4.62c0,.54.19,1.86.26,2.38l8.43,5.71a4.75,4.75,0,0,0,.6.33c.68.35,1.62.83,1.46,1.85-.28,1.85-7.47,1.8-7.54,1.8-1.48,0-2.8-.15-4-.26a20.81,20.81,0,0,0-2.6-.15c-1.29.07-6.49-.22-7.72-.77-1-.45-1.11-2.7-1-6.7,0-.47,0-.82,0-1a1.42,1.42,0,0,0-.27-.67,4.21,4.21,0,0,1-.59-2.92c.11-.94.32-2,.51-2.94a16.52,16.52,0,0,0,.46-3.06c0-.68-.71-5.17-1.25-8.77-.5-3.33-.81-5.38-.82-5.7s-1.17-6.68-2.26-12.77c-2-11.17-3.44-19.14-3.47-19.82,0-.91-1.58-9.09-2.39-13.3l-1.26,1.62c-.56,2.74-7.86,38.31-8.31,39.9-2.38,8.35-4.8,17.05-4.87,17.68a30.05,30.05,0,0,1-.69,3.69c.27.66,1.1,2.89.25,4.21-.76,1.17-2.72,3.5-3.15,4-.19.83-1.23,5.48-2,7.65-.86,2.57-2.82,3.44-4.58,4.06A3.35,3.35,0,0,1,102.06,304.19Zm6.43-101.49-.29,4.59L107,243.91c0,.23-3.1,14.47-3.7,20.62a65,65,0,0,0,.14,10.1c.19,2.73.34,4.88,0,6a14.16,14.16,0,0,1-1.34,3,8.09,8.09,0,0,0-.91,2,7.34,7.34,0,0,0,.67,3.4l0,.12v.13a68.42,68.42,0,0,1-1.73,9.39c-.5,1.85-.34,3.27.45,4a2.18,2.18,0,0,0,2.15.4c1.68-.59,3.24-1.3,4-3.43.76-2.3,1.93-7.62,2-7.68l0-.12.08-.09s2.35-2.76,3.16-4c.55-.86-.11-2.8-.39-3.41l-.07-.16,0-.16a33.51,33.51,0,0,0,.7-3.63c0-.41,1.63-6.45,4.91-18,.44-1.58,8.23-39.55,8.31-39.93l0-.12,2.76-3.53.21,1.07c.1.55,2.55,13.26,2.61,14.52,0,.67,1.93,11.22,3.45,19.7,1.57,8.73,2.26,12.59,2.28,12.9s.41,3,.81,5.59c.57,3.81,1.22,8.14,1.26,8.87a16.5,16.5,0,0,1-.48,3.31c-.19,1-.39,2-.5,2.86a3.31,3.31,0,0,0,.47,2.31,2.47,2.47,0,0,1,.4,1.12c0,.18,0,.56,0,1.06-.14,4.38.15,5.55.41,5.76.93.41,5.79.74,7.25.68a19.46,19.46,0,0,1,2.75.16c1.14.11,2.43.23,3.87.25,3.19.05,6.26-.57,6.56-1,0-.21-.26-.39-1-.75a7.81,7.81,0,0,1-.71-.4l-8.6-5.83-.19-.12,0-.22c0-.08-.27-2-.3-2.7a32.18,32.18,0,0,0-1.59-4.37l0-.1v-.11c0-.24.72-23.66.59-26.45l-.08-1.92c-.21-5.42-.79-19.81-1.54-26.2-.79-6.82-3.42-23.69-3.8-26.15l-11.13-3.78Z" style="fill:#263238"></path><path d="M139,160.57s3.3,30,3.54,35.36.75,8.84.75,8.84l-7.8,4.08-4.13-4.79L128,208.83s-7.76-2.67-9.92-3.28a33.79,33.79,0,0,1-4.51-1.75s3.75-23.08,3.7-24.32S112,149.35,112,149.35l14-2,11.29,4.75Z" style="fill:#fff"></path><path d="M135.36,209.48l-4-4.6-3.19,4.55-.36-.13c-.07,0-7.76-2.67-9.88-3.27a34.59,34.59,0,0,1-4.6-1.78l-.34-.17.06-.36c1.51-9.25,3.74-23.33,3.7-24.22s-3.81-22-5.25-30.06l-.1-.51,14.7-2.07,11.67,4.9,1.68,8.76c0,.3,3.3,30.11,3.54,35.38s.74,8.76.75,8.8l.05.35Zm-21.22-6a31.36,31.36,0,0,0,4.1,1.57c1.91.54,8,2.63,9.58,3.17l3.49-5,4.29,5,7.14-3.73c-.13-1-.51-4.21-.71-8.54-.23-5.18-3.43-34.38-3.53-35.3l-1.57-8.17L126,147.89l-13.4,1.88c.72,4,5.12,28.51,5.18,29.69S114.73,199.86,114.14,203.5Z" style="fill:#263238"></path><path d="M121.23,162.67l-4.33-14.76,1.84-3.06L133,149.53l1.64,10.76-6-3.89-1.55.87ZM118,148.05l3.75,12.78,4.76-4.4,2.13-1.19,4.68,3-1.21-8-12.91-4.24Z" style="fill:#263238"></path><path d="M131.45,150.79s3.15,18.86,7.4,26.48,9.22,27.29,9.65,29,.69,3.35.69,3.35S150.89,208,151,203s-2.55-25.1-3-28.09-.61-13.65-.61-13.65,8.82-1.28,12.47-3,5.43-1.66,5.71-3.27-2.8-15-4.77-19.14l-5.3-11.31L149,125.67l3.34,18.85-6.13,2s-2.59-2.36-3.83-2.31-5.28,1.13-6.86,1.37l-4.94.76Z" style="fill:#92E3A9"></path><path d="M148.84,210.7l-.15-1s-.25-1.58-.67-3.3c-.05-.21-5.24-21.08-9.6-28.92-4.23-7.58-7.31-25.73-7.46-26.63l-1-4.91.52-.08,4.94-.75c.64-.1,1.69-.34,2.8-.59a35.65,35.65,0,0,1,4.12-.79c1.22,0,3.22,1.59,4,2.25l5.44-1.82-3.34-18.92,7.38-1.34.16.35s3.34,7.13,5.31,11.3S166.36,153.2,166,155c-.23,1.35-1.32,1.76-2.95,2.38-.81.3-1.82.68-3,1.26-3.26,1.57-10.34,2.74-12.19,3,0,2,.18,10.55.6,13.13s3.18,23.08,3.05,28.2-1.91,6.92-2,7Zm-17.7-63.9.8,3.91c0,.18,3.19,18.86,7.35,26.32,4.43,7.95,9.65,28.95,9.7,29.16.19.78.35,1.52.46,2.11a13.06,13.06,0,0,0,1.07-5.31c.13-4.87-2.47-24.58-3-28-.49-3-.62-13.29-.62-13.72v-.44l.43-.06c.09,0,8.79-1.3,12.33-3,1.25-.6,2.28-1,3.11-1.3,1.66-.62,2.2-.86,2.33-1.61.26-1.47-2.81-14.77-4.73-18.84l-5.14-11-5.65,1,3.32,18.78-6.81,2.28-.21-.2c-1-.91-2.72-2.18-3.45-2.18h0a34.61,34.61,0,0,0-3.94.77c-1.13.25-2.2.49-2.86.6Z" style="fill:#263238"></path><polygon points="146.69 163.65 147.65 150.89 148.64 150.96 148.05 158.87 150.52 154.12 151.41 154.58 146.69 163.65" style="fill:#263238"></polygon><path d="M139.17,175.83c0-.68-1.07-7.22-2-13a121,121,0,0,0-2.66-12.08l1-.27a121.23,121.23,0,0,1,2.69,12.19c1.2,7.47,2,12.42,2,13.11Z" style="fill:#263238"></path><path d="M157.31,146.22a40.69,40.69,0,0,1-5.15-1.22l.27-1a37.43,37.43,0,0,0,4.87,1.18l0,1Z" style="fill:#263238"></path><path d="M118,123.13s-4.34,1.18-5.95,6.72,1.27,10.87,3.68,12.33a8.63,8.63,0,0,1,3.27,3.27v2.14s8.31,11.25,9.08,10.82,4.5-8.5,4.5-8.5,3.59-.35,4.44-1.07.76-9.22.76-9.22a4.57,4.57,0,0,0,1.08-1.9c.06-.78-3.1-3.86-3.1-3.86s-.07-1.46-.11-2.54-2.71-5.83-4.53-7.21S122.55,121,118,123.13Z" style="fill:#fff"></path><path d="M128,158.93c-.59,0-2.22-1.23-9.47-11l-.1-.13v-2.19a8.58,8.58,0,0,0-3-3c-2.71-1.63-5.51-7.33-3.9-12.89s5.74-6.89,6.25-7c4.64-2.16,11.54-.54,13.61,1,1.89,1.44,4.66,6.32,4.72,7.59l.1,2.34c1.49,1.46,3.18,3.3,3.11,4.12a4.44,4.44,0,0,1-1.08,2.05c0,3.28-.06,8.66-.94,9.41s-3.43,1.05-4.43,1.16c-1.44,3.1-3.82,8-4.59,8.47A.46.46,0,0,1,128,158.93Zm-8.57-11.5c3.45,4.66,7.38,9.59,8.46,10.41a78.12,78.12,0,0,0,4.16-8.14l.12-.26.29,0c1.43-.15,3.66-.54,4.16-1s.63-5,.59-8.82v-.2l.14-.14a4,4,0,0,0,.95-1.61,16.19,16.19,0,0,0-2.95-3.46l-.14-.14-.12-2.73c0-.83-2.53-5.48-4.33-6.84s-8.23-3-12.61-.92l-.08,0c-.17,0-4.1,1.18-5.6,6.36-1.59,5.49,1.36,10.5,3.46,11.77a9.08,9.08,0,0,1,3.46,3.48l0,.22Z" style="fill:#263238"></path><path d="M131.8,124.86l.06,0a5.7,5.7,0,0,0-.78-.73c-1.82-1.39-8.53-3.13-13.12-1,0,0-4.34,1.18-5.95,6.72s1.27,10.87,3.68,12.33a10,10,0,0,1,2.15,1.73c1.78-.82,4.57-2.6,4.7-5.65a4.27,4.27,0,0,0,1.07-2.3c0-1.17-1.1-2.68-.45-3.59s3.07-1.21,2.31-2.74-3.68-1.69-1.82-3.72S131.8,124.86,131.8,124.86Z" style="fill:#263238"></path><path d="M117.72,144.52l-.24-.26a9.8,9.8,0,0,0-2-1.66c-2.71-1.63-5.51-7.33-3.9-12.89,1.67-5.75,6.11-7,6.3-7.06,4.55-2.15,11.48-.52,13.56,1.06a6.46,6.46,0,0,1,.84.79l.55.6-1.06.25c-1.67-.26-6.33-.61-7.7.89a1.41,1.41,0,0,0-.48.87c0,.26.47.56.89.85a4,4,0,0,1,1.49,1.45c.7,1.42-.57,2.13-1.41,2.59a3.37,3.37,0,0,0-1,.66c-.23.33,0,1,.19,1.62a4.94,4.94,0,0,1,.36,1.7,4.52,4.52,0,0,1-1.08,2.47c-.23,3.24-3.21,5.1-5,5.92Zm5.36-21.9a11.58,11.58,0,0,0-4.91,1c-.25.07-4.18,1.21-5.68,6.39-1.59,5.49,1.36,10.5,3.46,11.77a10.62,10.62,0,0,1,2,1.56c1.61-.81,4-2.44,4.09-5.07v-.19l.12-.13a3.82,3.82,0,0,0,.94-2,4.42,4.42,0,0,0-.3-1.35,2.75,2.75,0,0,1-.06-2.51,3.75,3.75,0,0,1,1.27-1c1.07-.59,1.24-.81,1-1.28a3.27,3.27,0,0,0-1.16-1.07c-.61-.41-1.24-.84-1.32-1.56a2.14,2.14,0,0,1,.73-1.65c1.42-1.56,4.89-1.56,7-1.39A16.71,16.71,0,0,0,123.08,122.62Z" style="fill:#263238"></path><path d="M123.87,139.47s-2.65-4.67-4.14-3-.28,4.6.81,5.14a7.28,7.28,0,0,0,3.33.14" style="fill:#fff"></path><path d="M122.23,142.35a4.55,4.55,0,0,1-1.91-.33,4,4,0,0,1-1.7-2.77,3.56,3.56,0,0,1,.74-3.16,1.46,1.46,0,0,1,1.27-.5c1.67.19,3.47,3.28,3.67,3.63l-.87.49c-.7-1.24-2.08-3-2.92-3.12a.45.45,0,0,0-.41.18,2.64,2.64,0,0,0-.5,2.29,3.14,3.14,0,0,0,1.16,2.06,6.51,6.51,0,0,0,3,.1l.18,1A10.14,10.14,0,0,1,122.23,142.35Z" style="fill:#263238"></path><path d="M133.39,134.06c0,.59-.22,1.08-.54,1.1s-.61-.46-.63-1,.21-1.08.53-1.1S133.36,133.47,133.39,134.06Z" style="fill:#263238"></path><path d="M133.38,132.48c-1-1-1.72-.4-1.86-.27l-.7-.71a2.39,2.39,0,0,1,1.49-.59,2.49,2.49,0,0,1,1.79.87Z" style="fill:#263238"></path><path d="M135.91,142.44s-.76-1.72-2.23-1.85a2.13,2.13,0,0,0-2.26,1.95c0,.69,2.07.4,2.87.75S136.07,143.9,135.91,142.44Z" style="fill:#263238"></path><path d="M132.54,149.91a25.17,25.17,0,0,1-2.47-.67c-1-.34-4-1.87-4-1.87l4.72,5.16Z" style="fill:#263238"></path><path d="M130.86,153.34l-7-7.66,2.46,1.25s3,1.51,3.93,1.84,2.4.65,2.41.66l.72.15ZM128.23,149l2.51,2.73,1-1.48c-.52-.13-1.24-.32-1.82-.52C129.53,149.58,128.89,149.3,128.23,149Z" style="fill:#263238"></path><path d="M117.67,147s5.65,19.17,6.62,22.41a38.64,38.64,0,0,1,1.15,7.47c.2,1.36-11.31,37.45-11.31,37.45a46.75,46.75,0,0,1-10.4-3.23,19.6,19.6,0,0,1-7.4-6.37l8.16-31.42L103.67,161s-7.21,1-9.91,1.68-9.16.14-9.16.14-2.15-8.25-1.87-14.14,7.49-28.25,7.49-28.25l6.39,2.32.14,24.48,5.58-.8s4.42-2.12,5.92-2.05,6.44,3.27,6.44,3.27Z" style="fill:#92E3A9"></path><path d="M114.48,214.9l-.43-.07a46.8,46.8,0,0,1-10.54-3.27,20,20,0,0,1-7.6-6.55l-.12-.19,8.2-31.55-.79-11.65c-1.71.24-7.1,1-9.32,1.59-2.76.68-9.06.17-9.32.15l-.36,0-.09-.35c-.09-.33-2.16-8.38-1.88-14.29s7.22-27.45,7.51-28.37l.16-.49,7.21,2.6.14,24.26,4.93-.71c.71-.33,4.56-2.13,6.1-2.06s5.51,2.6,6.51,3.24l3.23-.74.13.45s5.65,19.17,6.62,22.41a29.4,29.4,0,0,1,1,6.23c0,.52.08,1,.13,1.31.2,1.4-9.4,31.62-11.33,37.67ZM96.87,204.64a19.35,19.35,0,0,0,7.07,6,45.52,45.52,0,0,0,9.85,3.1c4.54-14.23,11.16-35.47,11.16-36.83,0-.33-.09-.79-.14-1.34a28,28,0,0,0-1-6c-.88-2.94-5.63-19.05-6.48-22l-2.73.63-.18-.12c-1.86-1.21-5.19-3.14-6.19-3.19s-4.49,1.43-5.69,2l-.14,0-6.14.88-.15-24.7-5.58-2c-1,3.32-7,22.34-7.3,27.62-.24,5.07,1.37,12,1.76,13.65,1.38.1,6.41.4,8.65-.15,2.7-.67,9.66-1.65,10-1.69l.53-.07.87,12.89Z" style="fill:#263238"></path><path d="M123.4,178.26c0-.08-3.68-8.24-5.36-12.5s-3.53-15.47-3.61-15.95l1-.16c0,.12,1.89,11.54,3.55,15.74s5.31,12.38,5.34,12.46Z" style="fill:#263238"></path><polygon points="104.65 165 100.41 153.96 101.34 153.6 102.68 157.09 102.08 152.13 103.08 152 104.65 165" style="fill:#263238"></polygon><rect x="96.54" y="147.25" width="1" height="6.57" transform="translate(-12.65 8.95) rotate(-4.96)" style="fill:#263238"></rect><polygon points="91.13 84.64 98.98 127.31 148.34 121.64 150.26 121.15 143.3 80.22 91.13 84.64" style="fill:#fff"></polygon><path d="M98.57,127.86l-8-43.67,53.17-4.51,7.12,41.84-2.37.61ZM91.72,85.09l7.67,41.67,48.89-5.61,1.41-.37-6.81-40Z" style="fill:#263238"></path><path d="M91,121l1.11-7.18-2-9.5,4.2-4.27,4,1a.65.65,0,0,1-.07.72c-.29.32-3,.34-3,.34l-1.18,1.07,2.75-.12,2.31,1.43s.07,1.73.16,3.56-.61,0-1,.15-1.91.49-1.91.49l1,9.44-.78,4.67Z" style="fill:#fff"></path><path d="M97,123.44l-6.57-2.14,1.15-7.52-2-9.67,4.58-4.67,4.51,1.17.11.19a1.15,1.15,0,0,1-.14,1.3c-.1.1-.32.35-2,.46l.28,0,2.66,1.65.18,3.83c0,.58,0,1.13-.43,1.3s-.73-.18-1-.44l-.15-.17c-.34.1-.94.25-1.35.35l1,9.07Zm-5.46-2.83,4.67,1.52.67-4-1.08-9.8.43-.11,1.89-.48a.68.68,0,0,1,.65.14l-.14-3.09-2-1.2-4,.17,2.34-2.13h.19a17.67,17.67,0,0,0,2.58-.18l-3.33-.86-3.8,3.87,1.92,9.32Zm6.87-11.94Zm-3-6.07h0l.54,0Z" style="fill:#263238"></path><path d="M94.8,116.44a2.27,2.27,0,0,1-.86-.16l.38-.93s.77.3,1.11-.2a15,15,0,0,0,.63-4.36l1,0c0,.66-.18,4-.8,4.89A1.7,1.7,0,0,1,94.8,116.44Z" style="fill:#263238"></path><polygon points="91.59 106.42 91.29 105.47 96.07 103.99 99.11 104.92 98.82 105.88 96.07 105.03 91.59 106.42" style="fill:#263238"></polygon><polygon points="91.96 108.25 91.7 107.28 96.03 106.14 99.1 106.53 98.97 107.53 96.1 107.16 91.96 108.25" style="fill:#263238"></polygon><path d="M151.5,103.55s3,5,2.79,5.28-2.77,6.45-2.77,6.45l3.07,9.34-4.75.93-1.5-3.91,1.92-.49-2-12-1.88-3.28Z" style="fill:#fff"></path><path d="M149.53,126.12l-1.86-4.82,2-.52-1.88-11.41-2.1-3.67,6-2.79.23.38c3.14,5.23,3,5.52,2.79,5.8S153,113,152.05,115.3l3.2,9.71ZM149,122l1.15,3,3.78-.74-2.95-9,.07-.18c.56-1.32,2.29-5.42,2.72-6.34a45.32,45.32,0,0,0-2.47-4.55l-4.2,2,1.67,3,2,12.4Z" style="fill:#263238"></path><path d="M151.66,107s-2.94,2.68-3.37,2.19a13,13,0,0,1-1.88-3.28c-.13-.71,2-2.64,2-2.64a18.44,18.44,0,0,1-1.89,1c-.4.12-1,.15-1.14-.35s3.34-3,3.34-3,.56-.94,1.11-.15,3,4.35,3,5.17" style="fill:#fff"></path><path d="M148.44,109.76h0a.67.67,0,0,1-.48-.23,13,13,0,0,1-2-3.52,1.75,1.75,0,0,1,.4-1.17,1.53,1.53,0,0,1-.92-.14,1,1,0,0,1-.48-.65c-.07-.29-.21-.83,3.45-3.48a1.37,1.37,0,0,1,1-.62,1.05,1.05,0,0,1,.91.54c.91,1.32,3,4.49,3.08,5.43l-1,0a25.85,25.85,0,0,0-2.9-4.91.35.35,0,0,0-.1-.1s-.12.13-.18.23l-.13.15a22.16,22.16,0,0,0-3,2.52,1,1,0,0,0,.41,0,15.68,15.68,0,0,0,1.78-1l.59.8a7.36,7.36,0,0,0-1.87,2.21,14.32,14.32,0,0,0,1.65,2.87,13.84,13.84,0,0,0,2.77-2.09l.68.74C151,108.28,149.26,109.76,148.44,109.76Z" style="fill:#263238"></path><path d="M147.31,107.28l-.69-.72c.32-.31,3.15-3,3.55-3.35l.63.77C150.49,104.24,148.18,106.45,147.31,107.28Z" style="fill:#263238"></path><rect x="147.12" y="106.25" width="4.67" height="1" transform="translate(-33.93 116.87) rotate(-38.69)" style="fill:#263238"></rect><rect x="148.16" y="102.2" width="1.51" height="1" transform="translate(-25.21 151.7) rotate(-50.31)" style="fill:#263238"></rect></g></svg>
